<svg xmlns="http://www.w3.org/2000/svg" viewBox="0 0 1475 535" role="img" aria-label="GSEG — Engenharia de Segurança do Trabalho"><title>GSEG — Engenharia de Segurança do Trabalho</title><g fill="#E0CFAE"><g transform="translate(20,20) scale(0.2502)"><path d="m758 130.5c-8.5 0.7-19.8 1.8-25 2.4-5.2 0.6-12.7 1.6-16.5 2.2-3.9 0.6-13.1 2.2-20.5 3.6-7.4 1.4-16 3.1-19 3.8-3 0.7-6.9 1.6-8.5 1.9l-3 0.7c11.5 11.9 26.8 27.5 41.4 42.4 14.6 14.8 36.3 36.9 48.1 49 11.9 12.1 43.2 44 69.5 71 26.4 26.9 56.5 57.7 67 68.3l19 19.2h295.5v298.5l263 263v-827.5c-616.6 0.2-699 0.6-711 1.5zm-255 65c-1.4 0.8-9.6 5.5-18.3 10.5-8.6 4.9-22.1 13.1-30 18.1-7.8 5-19.4 12.7-25.7 17.2-6.3 4.4-17.4 12.6-24.5 18.1-7.2 5.5-16.8 13.2-21.5 17-4.7 3.9-14.4 12.3-21.5 18.7-7.2 6.4-21.8 20.6-32.5 31.5-10.8 11-24.8 26-31.1 33.4-6.4 7.4-14.9 17.8-19 23-4.2 5.2-10.7 13.8-14.5 19-3.9 5.2-10.4 14.4-14.6 20.5-4.2 6-11.6 17.5-16.5 25.5-4.9 8-12.7 21.2-17.3 29.5-4.6 8.2-12.5 23.5-17.6 34-5.1 10.4-12 25.7-15.4 34-3.5 8.2-8.6 21.5-11.5 29.5-2.9 8-7.1 20.3-9.3 27.5-2.3 7.1-5.7 18.8-7.7 26-1.9 7.1-5.3 20.9-7.4 30.5-2.2 9.6-5.1 24.5-6.5 33-1.4 8.5-3.3 20.9-4.1 27.5-0.8 6.6-2.3 20.5-3.2 31-0.9 10.7-1.6 30.3-1.6 45-0.1 14.3 0.5 32.3 1.1 40 0.7 7.7 2.2 21.4 3.3 30.5 1.1 9.1 3.4 24.4 5 34 1.6 9.6 5 26.7 7.5 38 2.6 11.3 6.4 27 8.6 35 2.2 8 6.9 23.5 10.5 34.5 3.6 11 8.7 25.6 11.3 32.5 2.6 6.9 7.1 18.1 10 25 2.9 6.9 10.3 22.8 16.5 35.5 6.2 12.6 14.2 28.3 17.9 34.7 3.6 6.5 10 17.3 14.3 24 4.2 6.8 10.8 17 14.6 22.8 3.9 5.8 10.2 14.8 14.1 20 3.8 5.2 10.4 13.8 14.5 19 4.2 5.2 12.1 14.7 17.5 21 5.5 6.3 12.5 14.2 15.5 17.5 3.1 3.3 9.9 10.3 15.1 15.5 5.2 5.3 14.4 14.2 20.5 19.7 6 5.6 16.8 15 24 20.9 7.1 5.9 18.2 14.6 24.5 19.4 6.3 4.8 17.8 13 25.5 18.2 7.7 5.3 18.7 12.5 24.5 16 5.8 3.6 16.3 9.8 23.5 13.8 7.1 4 21.3 11.4 31.5 16.5 10.2 5 25.5 12.1 34 15.8 8.5 3.6 21.6 8.8 29 11.5 7.4 2.7 20.5 7.2 29 10 8.5 2.8 22.2 6.9 30.5 9.1 8.2 2.2 23.1 5.8 33 8 9.9 2.1 25.2 5.1 34 6.5 8.8 1.5 17.3 2.9 19 3.1 1.6 0.3 9.1 1.2 16.5 2 7.4 0.9 23.2 2.2 35 3 11.8 0.8 32.1 1.5 45 1.5 12.9 0 32.7-0.7 44-1.5 11.3-0.8 26.6-2.1 34-3 7.4-0.8 14.8-1.7 16.5-2 1.6-0.2 10.2-1.6 19-3.1 8.8-1.4 23.9-4.3 33.5-6.5 9.6-2.1 24.2-5.7 32.5-8 8.2-2.2 22-6.3 30.5-9.1 8.5-2.8 23.4-8.1 33-11.8 9.6-3.7 23.8-9.6 31.5-13 7.7-3.5 20.7-9.8 29-14.1 8.2-4.2 21.6-11.5 29.7-16.3 8.2-4.7 19.9-11.9 26-15.9 6.2-4 17.1-11.5 24.3-16.7 7.1-5.1 18.2-13.4 24.5-18.5 6.3-5 17.3-14.3 24.5-20.5 7.1-6.3 20-18.5 28.6-27 8.5-8.5 20-20.5 25.4-26.5 5.4-6.1 14.6-16.9 20.5-24 5.8-7.2 14.8-18.6 20-25.5 5.1-6.9 14.4-20.2 20.5-29.5 6.2-9.4 15.5-24 20.6-32.5 5.1-8.5 13.4-23.7 18.6-33.8l9.3-18.2c-3.5-4.3-11.3-12.5-19.5-21-8.3-8.5-21.1-21.8-28.5-29.5-7.4-7.7-20.7-21.4-29.6-30.5-8.8-9.1-22.5-23.3-30.5-31.5-7.9-8.3-20.9-21.8-28.9-30-8-8.3-21.5-22.2-30-31-8.5-8.8-22.5-23.2-31-32-8.5-8.8-22.3-23-30.5-31.5-8.3-8.5-21.6-22.3-29.6-30.5-7.9-8.3-27.7-28.7-43.9-45.5-16.2-16.8-36.7-37.9-45.5-47-8.8-9.1-23.1-23.8-31.8-32.8l-15.7-16.2c-306.9 0-396 0.3-396 0.7 0 0.5 96.8 97.5 215.1 215.8l215.1 215c-17.6 13.3-26.1 19.4-30.2 22.2-4.1 2.7-12 7.7-17.5 11-5.5 3.3-15.2 8.7-21.5 12-6.3 3.3-17.1 8.5-24 11.6-6.9 3-18.6 7.7-26 10.5-7.4 2.8-19.8 6.9-27.5 9-7.7 2.2-19.6 5.1-26.5 6.6-6.9 1.4-17.2 3.2-23 4-5.8 0.9-15.7 2-22 2.6-6.3 0.5-19.6 1-29.5 1-9.9 0-23.2-0.5-29.5-1-6.3-0.6-16.2-1.7-22-2.6-5.8-0.8-16.8-2.9-24.5-4.5-7.7-1.7-19.2-4.7-25.5-6.6-6.3-1.9-17.6-5.7-25-8.5-7.4-2.7-20.3-8.3-28.5-12.3-8.3-4-19.1-9.7-24-12.5-5-2.9-13.3-8-18.5-11.4-5.2-3.4-15.4-10.7-22.5-16.1-7.2-5.4-17.7-14-23.5-19-5.8-5.1-17.5-16.4-26-25.1-8.6-8.8-20.1-21.3-25.6-27.9-5.5-6.6-14.3-18.1-19.6-25.5-5.3-7.4-13.1-19.1-17.4-26-4.3-6.9-11.9-20.6-16.9-30.5-5.1-9.9-11.7-24.1-14.8-31.5-3.1-7.4-7.6-19.6-10.1-27-2.4-7.4-6.2-20.9-8.4-30-2.3-9.1-5-22.1-6.1-29-1.1-6.9-2.7-20.2-3.7-29.5-1.2-12.6-1.5-22.8-1.1-39.5 0.3-15.7 1.1-26.9 2.6-37 1.2-8 3.3-19.9 4.7-26.5 1.4-6.6 4.5-19 6.9-27.5 2.4-8.5 5.5-19.1 7-23.5 1.5-4.4 5.6-15.4 9.2-24.5 3.6-9.1 10.3-24.2 14.9-33.5 4.7-9.4 12-22.8 16.2-29.8 4.2-7 11.6-18.3 16.4-25 4.8-6.7 13.1-17.5 18.5-24 5.4-6.6 17.2-19.2 26.3-28.1 9.1-8.9 21.4-20.1 27.5-24.9 6-4.9 18-13.5 26.5-19.1 8.5-5.7 21.8-13.7 29.5-17.9 7.7-4.2 20.1-10.3 27.5-13.5 7.4-3.3 20.9-8.5 30-11.7 9.1-3.1 23.2-7.4 31.5-9.5 8.2-2.1 17.1-4.1 19.7-4.4 2.7-0.3 4.8-0.9 4.8-1.4 0-0.4-48-48.7-106.7-107.4-58.8-58.8-107.5-106.8-108.3-106.8-0.8 0-2.6 0.7-4 1.5z"/></g><path transform="translate(460.25,332.00) scale(0.38000,-0.38000)" d="M376 722Q441 722 481.0 702.5Q521 683 556 657Q569 647 576 647Q595 647 601 708H624Q622 671 621.0 618.0Q620 565 620 478H597Q590 520 580.0 559.0Q570 598 547 626Q518 663 471.0 683.5Q424 704 374 704Q324 704 283.5 679.5Q243 655 214.0 609.0Q185 563 169.5 498.5Q154 434 154 353Q154 173 212.0 89.5Q270 6 392 6Q428 6 454.5 16.5Q481 27 496 37Q515 50 520.0 61.5Q525 73 525 92V188Q525 229 517.0 249.0Q509 269 487.5 276.0Q466 283 424 284V304Q442 303 466.0 302.5Q490 302 516.5 301.5Q543 301 565 301Q598 301 624.5 302.0Q651 303 669 304V284Q647 283 636.0 277.0Q625 271 621.5 253.0Q618 235 618 198V0H598Q597 17 590.5 37.0Q584 57 571 57Q565 57 559.0 54.0Q553 51 538 40Q505 15 468.0 0.5Q431 -14 382 -14Q279 -14 205.5 28.5Q132 71 93.0 151.0Q54 231 54 342Q54 459 96.0 544.0Q138 629 210.5 675.5Q283 722 376 722Z"/><path transform="translate(735.39,332.00) scale(0.38000,-0.38000)" d="M256 719Q306 719 332.0 707.5Q358 696 378 682Q390 675 397.5 671.5Q405 668 412 668Q422 668 426.5 679.0Q431 690 434 712H457Q456 695 454.5 671.5Q453 648 452.5 609.5Q452 571 452 508H429Q426 556 408.0 600.0Q390 644 355.5 672.0Q321 700 265 700Q212 700 177.5 668.0Q143 636 143 584Q143 539 166.0 508.5Q189 478 227.5 453.5Q266 429 311 401Q363 369 403.5 337.5Q444 306 467.5 268.0Q491 230 491 176Q491 112 462.0 70.0Q433 28 385.0 7.0Q337 -14 279 -14Q226 -14 195.0 -2.0Q164 10 142 23Q120 37 108 37Q98 37 93.5 26.0Q89 15 86 -7H63Q65 14 65.5 42.5Q66 71 66.5 117.0Q67 163 67 233H90Q94 173 112.5 121.0Q131 69 169.5 37.5Q208 6 272 6Q305 6 334.5 19.5Q364 33 383.0 62.5Q402 92 402 139Q402 180 382.5 210.5Q363 241 328.0 267.5Q293 294 246 322Q199 351 158.0 381.0Q117 411 92.5 450.5Q68 490 68 546Q68 605 94.5 643.5Q121 682 164.0 700.5Q207 719 256 719Z"/><path transform="translate(948.59,332.00) scale(0.38000,-0.38000)" d="M541 708Q537 673 535.5 640.0Q534 607 534 590Q534 572 535.0 555.5Q536 539 537 528H514Q508 587 497.0 621.5Q486 656 459.5 670.5Q433 685 380 685H297Q263 685 245.5 679.5Q228 674 222.0 656.5Q216 639 216 602V106Q216 70 222.0 52.0Q228 34 245.5 28.5Q263 23 297 23H370Q433 23 465.5 40.0Q498 57 512.5 95.5Q527 134 534 200H557Q554 173 554 128Q554 109 555.5 73.5Q557 38 561 0Q510 2 446.0 2.5Q382 3 332 3Q310 3 275.5 3.0Q241 3 201.0 2.5Q161 2 120.0 1.5Q79 1 42 0V20Q76 22 93.5 28.0Q111 34 117.0 52.0Q123 70 123 106V602Q123 639 117.0 656.5Q111 674 93.5 680.5Q76 687 42 688V708Q79 707 120.0 706.5Q161 706 201.0 705.5Q241 705 275.5 705.0Q310 705 332 705Q378 705 436.5 705.5Q495 706 541 708ZM369 366Q369 366 369.0 356.0Q369 346 369 346H186Q186 346 186.0 356.0Q186 366 186 366ZM398 498Q394 441 394.5 411.0Q395 381 395 356Q395 331 396.0 301.0Q397 271 401 214H378Q374 246 368.5 276.5Q363 307 344.5 326.5Q326 346 282 346V366Q315 366 332.5 379.5Q350 393 358.0 414.0Q366 435 369.0 457.5Q372 480 375 498Z"/><path transform="translate(1188.01,332.00) scale(0.38000,-0.38000)" d="M376 722Q441 722 481.0 702.5Q521 683 556 657Q569 647 576 647Q595 647 601 708H624Q622 671 621.0 618.0Q620 565 620 478H597Q590 520 580.0 559.0Q570 598 547 626Q518 663 471.0 683.5Q424 704 374 704Q324 704 283.5 679.5Q243 655 214.0 609.0Q185 563 169.5 498.5Q154 434 154 353Q154 173 212.0 89.5Q270 6 392 6Q428 6 454.5 16.5Q481 27 496 37Q515 50 520.0 61.5Q525 73 525 92V188Q525 229 517.0 249.0Q509 269 487.5 276.0Q466 283 424 284V304Q442 303 466.0 302.5Q490 302 516.5 301.5Q543 301 565 301Q598 301 624.5 302.0Q651 303 669 304V284Q647 283 636.0 277.0Q625 271 621.5 253.0Q618 235 618 198V0H598Q597 17 590.5 37.0Q584 57 571 57Q565 57 559.0 54.0Q553 51 538 40Q505 15 468.0 0.5Q431 -14 382 -14Q279 -14 205.5 28.5Q132 71 93.0 151.0Q54 231 54 342Q54 459 96.0 544.0Q138 629 210.5 675.5Q283 722 376 722Z"/><path transform="translate(20.00,505.00) scale(0.05023,-0.05023)" d="M114.30092204526404 0V700H594.1994970662196V635.6689019279129H187.56496227996647V64.33109807208717H608.6328583403185V0ZM180.2984073763621 323.9010896898575V387.0989103101425H550.3327745180218V323.9010896898575Z"/><path transform="translate(61.14,505.00) scale(0.05023,-0.05023)" d="M114.30092204526404 0V700H174.93210393964796L657.5674769488684 91.56328583403184H625.6018440905281V700H698.8658843252305V0H638.2347024308466L155.59932942162615 608.4367141659682H187.56496227996647V0Z"/><path transform="translate(109.51,505.00) scale(0.05023,-0.05023)" d="M421 -6.399832355406538Q341.30008382229676 -6.399832355406538 273.88348700754403 20.100167644593462Q206.46689019279128 46.60016764459346 156.61693210393963 94.883487007544Q106.76697401508801 143.16680637049456 79.20033528918692 208.01676445934618Q51.63369656328584 272.8667225481978 51.63369656328584 350Q51.63369656328584 427.1332774518022 79.20033528918692 491.9832355406538Q106.76697401508801 556.8331936295054 156.9002514668902 605.1165129924559Q207.03352891869238 653.3998323554065 274.4501257334451 679.8998323554065Q341.8667225481978 706.3998323554065 422.1332774518022 706.3998323554065Q501.63285834031853 706.3998323554065 568.3826487845768 681.0Q635.1324392288349 655.6001676445935 682.3989941324393 604.9337803855826L636.4006705783738 558.0687342833194Q591.8005029337804 601.802179379715 539.1169321039397 621.0854987426655Q486.4333612740989 640.3688181056161 424.96647108130765 640.3688181056161Q360.466051969824 640.3688181056161 305.6156747694887 618.5519698239732Q250.7652975691534 596.7351215423303 210.21500419111484 557.4681475272423Q169.66471081307628 518.2011735121542 147.56454316848283 465.35079631181895Q125.46437552388934 412.50041911148367 125.46437552388934 350Q125.46437552388934 288.06621961441743 147.56454316848283 235.21584241408215Q169.66471081307628 182.36546521374686 210.21500419111484 142.8151718357083Q250.7652975691534 103.26487845766974 305.3323554065381 81.44803017602682Q359.8994132439229 59.6311818943839 424.39983235540655 59.6311818943839Q483.60016764459345 59.6311818943839 537.2837384744342 77.93126571668063Q590.967309304275 96.23134953897737 635.8340318524728 138.83151718357084L677.8658843252305 83.03352891869237Q628.3327745180218 38.60016764459346 561.0163453478625 16.100167644593462Q493.69991617770324 -6.399832355406538 421 -6.399832355406538ZM677.8658843252305 83.03352891869237 607.3017602682313 92.39983235540655V350.3663034367142H677.8658843252305Z"/><path transform="translate(155.87,505.00) scale(0.05023,-0.05023)" d="M114.30092204526404 0V700H594.1994970662196V635.6689019279129H187.56496227996647V64.33109807208717H608.6328583403185V0ZM180.2984073763621 323.9010896898575V387.0989103101425H550.3327745180218V323.9010896898575Z"/><path transform="translate(197.01,505.00) scale(0.05023,-0.05023)" d="M114.30092204526404 0V700H174.93210393964796L657.5674769488684 91.56328583403184H625.6018440905281V700H698.8658843252305V0H638.2347024308466L155.59932942162615 608.4367141659682H187.56496227996647V0Z"/><path transform="translate(245.39,505.00) scale(0.05023,-0.05023)" d="M625.6018440905281 0V700H698.8658843252305V0ZM114.30092204526404 0V700H187.56496227996647V0ZM179.73176865046102 323.33445096395644V387.66554903604356H632.8683989941325V323.33445096395644Z"/><path transform="translate(293.76,505.00) scale(0.05023,-0.05023)" d="M2.200335289186924 0 322.1005867560771 700H394.7979882648784L715.2648784576697 0H637.3009220452641L342.96647108130765 657.3679798826488H373.36546521374686L79.03101424979045 0ZM127.89941324392288 186.63453478625314 149.79882648784576 246.9991617770327H557.0335289186924L579.4995808885163 186.63453478625314Z"/><path transform="translate(337.31,505.00) scale(0.05023,-0.05023)" d="M114.30092204526404 0V700H375.6663872590109Q509.19949706621964 700 585.5993294216262 636.6668063704946Q661.9991617770327 573.3336127409891 661.9991617770327 460.36714165968147Q661.9991617770327 386.1005867560771 627.58256496228 332.6173512154233Q593.1659681475272 279.1341156747695 529.1160938809724 250.5008382229673Q465.06621961441743 221.86756077116513 375.6663872590109 221.86756077116513H154.7661357921207L187.56496227996647 255.7996647108131V0ZM592.035205364627 0 411.86839899413246 254H492.3989941324392L673.1324392288349 0ZM187.56496227996647 249.86672254819783 154.7661357921207 285.0653813914501H374.26655490360434Q479.1341156747695 285.0653813914501 533.6512992455994 331.21584241408215Q588.1684828164292 377.3663034367142 588.1684828164292 460.36714165968147Q588.1684828164292 544.3679798826488 533.6512992455994 590.0184409052808Q479.1341156747695 635.6689019279129 374.26655490360434 635.6689019279129H154.7661357921207L187.56496227996647 671.4341994970662Z"/><path transform="translate(381.16,505.00) scale(0.05023,-0.05023)" d="M114.30092204526404 0V700H187.56496227996647V0Z"/><path transform="translate(403.87,505.00) scale(0.05023,-0.05023)" d="M2.200335289186924 0 322.1005867560771 700H394.7979882648784L715.2648784576697 0H637.3009220452641L342.96647108130765 657.3679798826488H373.36546521374686L79.03101424979045 0ZM127.89941324392288 186.63453478625314 149.79882648784576 246.9991617770327H557.0335289186924L579.4995808885163 186.63453478625314Z"/><path transform="translate(468.11,505.00) scale(0.05023,-0.05023)" d="M114.30092204526404 0V700H399.1332774518022Q511.26655490360434 700 595.6831517183571 655.3499580888516Q680.0997485331098 610.6999161777032 727.233025984912 531.9832355406538Q774.3663034367141 453.26655490360434 774.3663034367141 350Q774.3663034367141 246.73344509639566 727.233025984912 168.01676445934618Q680.0997485331098 89.30008382229673 595.6831517183571 44.650041911148364Q511.26655490360434 0 399.1332774518022 0ZM187.56496227996647 64.33109807208717H394.8667225481978Q488.2673931265717 64.33109807208717 556.7845766974015 100.81475272422463Q625.3017602682313 137.2984073763621 662.918692372171 201.5989103101425Q700.5356244761107 265.8994132439229 700.5356244761107 350Q700.5356244761107 434.6672254819782 662.918692372171 498.68440905280806Q625.3017602682313 562.7015926236379 556.7845766974015 599.1852472757754Q488.2673931265717 635.6689019279129 394.8667225481978 635.6689019279129H187.56496227996647Z"/><path transform="translate(517.14,505.00) scale(0.05023,-0.05023)" d="M114.30092204526404 0V700H594.1994970662196V635.6689019279129H187.56496227996647V64.33109807208717H608.6328583403185V0ZM180.2984073763621 323.9010896898575V387.0989103101425H550.3327745180218V323.9010896898575Z"/><path transform="translate(578.97,505.00) scale(0.05023,-0.05023)" d="M307.39983235540655 -6.399832355406538Q228.5666387259011 -6.399832355406538 157.383487007544 19.333612740989103Q86.20033528918692 45.067057837384745 46.66722548197821 85.2338642078793L75.96647108130763 141.8650461022632Q113.49958088851635 105.69823973176865 175.7162615255658 81.24811399832356Q237.93294216261526 56.797988264878455 306.96647108130765 56.797988264878455Q372.766974015088 56.797988264878455 414.1839899413244 73.26487845766974Q455.6010058675608 89.73176865046102 475.41785414920366 117.86546521374686Q495.2347024308466 145.9991617770327 495.2347024308466 180.49958088851633Q495.2347024308466 221.4333612740989 471.8013411567477 246.266974015088Q448.3679798826488 271.1005867560771 410.06789606035204 285.7673931265717Q371.76781223805534 300.43419949706623 325.9010896898575 311.08424140821455Q280.0343671416597 321.73428331936293 233.9509639564124 334.58424140821455Q187.86756077116513 347.43419949706623 149.5674769488684 368.0674769488684Q111.26739312657168 388.7007544006706 87.83403185247276 423.5507124895222Q64.40067057837385 458.4006705783738 64.40067057837385 513.967309304275Q64.40067057837385 565.6336965632859 91.7338642078793 609.3168482816429Q119.06705783738474 653 175.95012573344508 679.6999161777032Q232.83319362950544 706.3998323554065 321.63285834031853 706.3998323554065Q381.0326906957251 706.3998323554065 439.21584241408215 689.7497904442582Q497.3989941324392 673.0997485331098 539.3654652137468 643.5331098072087L513.6328583403185 585.035205364627Q469.3663034367142 614.9019279128248 418.9329421626153 629.0519698239732Q368.49958088851633 643.2020117351216 321.49958088851633 643.2020117351216Q258.13243922883487 643.2020117351216 216.93210393964796 625.9518021793797Q175.73176865046102 608.7015926236379 156.41492036881812 580.2845766974015Q137.09807208717518 551.8675607711651 137.09807208717518 516.3671416596815Q137.09807208717518 475 160.53143336127408 450.1663872590109Q183.964794635373 425.3327745180218 222.26487845766974 410.9492875104778Q260.5649622799665 396.56580050293377 306.6483654652138 385.63243922883487Q352.73176865046105 374.69907795473597 398.59849119865885 361.91575859178545Q444.46521374685665 349.13243922883487 482.7652975691534 328.78248113998325Q521.0653813914502 308.4325230511316 544.4987426655491 274.0159262363789Q567.932103939648 239.59932942162615 567.932103939648 185.03269069572505Q567.932103939648 133.93294216261526 540.0989103101425 90.24979044425817Q512.2657166806371 46.566638725901086 454.4492875104778 20.083403185247274Q396.63285834031853 -6.399832355406538 307.39983235540655 -6.399832355406538Z"/><path transform="translate(617.40,505.00) scale(0.05023,-0.05023)" d="M114.30092204526404 0V700H594.1994970662196V635.6689019279129H187.56496227996647V64.33109807208717H608.6328583403185V0ZM180.2984073763621 323.9010896898575V387.0989103101425H550.3327745180218V323.9010896898575Z"/><path transform="translate(658.54,505.00) scale(0.05023,-0.05023)" d="M421 -6.399832355406538Q341.30008382229676 -6.399832355406538 273.88348700754403 20.100167644593462Q206.46689019279128 46.60016764459346 156.61693210393963 94.883487007544Q106.76697401508801 143.16680637049456 79.20033528918692 208.01676445934618Q51.63369656328584 272.8667225481978 51.63369656328584 350Q51.63369656328584 427.1332774518022 79.20033528918692 491.9832355406538Q106.76697401508801 556.8331936295054 156.9002514668902 605.1165129924559Q207.03352891869238 653.3998323554065 274.4501257334451 679.8998323554065Q341.8667225481978 706.3998323554065 422.1332774518022 706.3998323554065Q501.63285834031853 706.3998323554065 568.3826487845768 681.0Q635.1324392288349 655.6001676445935 682.3989941324393 604.9337803855826L636.4006705783738 558.0687342833194Q591.8005029337804 601.802179379715 539.1169321039397 621.0854987426655Q486.4333612740989 640.3688181056161 424.96647108130765 640.3688181056161Q360.466051969824 640.3688181056161 305.6156747694887 618.5519698239732Q250.7652975691534 596.7351215423303 210.21500419111484 557.4681475272423Q169.66471081307628 518.2011735121542 147.56454316848283 465.35079631181895Q125.46437552388934 412.50041911148367 125.46437552388934 350Q125.46437552388934 288.06621961441743 147.56454316848283 235.21584241408215Q169.66471081307628 182.36546521374686 210.21500419111484 142.8151718357083Q250.7652975691534 103.26487845766974 305.3323554065381 81.44803017602682Q359.8994132439229 59.6311818943839 424.39983235540655 59.6311818943839Q483.60016764459345 59.6311818943839 537.2837384744342 77.93126571668063Q590.967309304275 96.23134953897737 635.8340318524728 138.83151718357084L677.8658843252305 83.03352891869237Q628.3327745180218 38.60016764459346 561.0163453478625 16.100167644593462Q493.69991617770324 -6.399832355406538 421 -6.399832355406538ZM677.8658843252305 83.03352891869237 607.3017602682313 92.39983235540655V350.3663034367142H677.8658843252305Z"/><path transform="translate(704.90,505.00) scale(0.05023,-0.05023)" d="M395.8667225481978 -6.399832355406538Q261.80050293378036 -6.399832355406538 185.0507124895222 71.0Q108.30092204526404 148.39983235540655 108.30092204526404 299.233025984912V700H181.56496227996647V301.93294216261523Q181.56496227996647 177.79882648784576 237.71542330259848 118.71500419111483Q293.8658843252305 59.6311818943839 396.4333612740989 59.6311818943839Q499.00083822296733 59.6311818943839 555.1512992455994 118.71500419111483Q611.3017602682313 177.79882648784576 611.3017602682313 301.93294216261523V700H683.4325230511316V299.233025984912Q683.4325230511316 148.39983235540655 606.6827326068735 71.0Q529.9329421626153 -6.399832355406538 395.8667225481978 -6.399832355406538Z"/><path transform="translate(752.22,505.00) scale(0.05023,-0.05023)" d="M114.30092204526404 0V700H375.6663872590109Q509.19949706621964 700 585.5993294216262 636.6668063704946Q661.9991617770327 573.3336127409891 661.9991617770327 460.36714165968147Q661.9991617770327 386.1005867560771 627.58256496228 332.6173512154233Q593.1659681475272 279.1341156747695 529.1160938809724 250.5008382229673Q465.06621961441743 221.86756077116513 375.6663872590109 221.86756077116513H154.7661357921207L187.56496227996647 255.7996647108131V0ZM592.035205364627 0 411.86839899413246 254H492.3989941324392L673.1324392288349 0ZM187.56496227996647 249.86672254819783 154.7661357921207 285.0653813914501H374.26655490360434Q479.1341156747695 285.0653813914501 533.6512992455994 331.21584241408215Q588.1684828164292 377.3663034367142 588.1684828164292 460.36714165968147Q588.1684828164292 544.3679798826488 533.6512992455994 590.0184409052808Q479.1341156747695 635.6689019279129 374.26655490360434 635.6689019279129H154.7661357921207L187.56496227996647 671.4341994970662Z"/><path transform="translate(796.07,505.00) scale(0.05023,-0.05023)" d="M2.200335289186924 0 322.1005867560771 700H394.7979882648784L715.2648784576697 0H637.3009220452641L342.96647108130765 657.3679798826488H373.36546521374686L79.03101424979045 0ZM127.89941324392288 186.63453478625314 149.79882648784576 246.9991617770327H557.0335289186924L579.4995808885163 186.63453478625314Z"/><path transform="translate(839.62,505.00) scale(0.05023,-0.05023)" d="M114.30092204526404 0V700H174.93210393964796L657.5674769488684 91.56328583403184H625.6018440905281V700H698.8658843252305V0H638.2347024308466L155.59932942162615 608.4367141659682H187.56496227996647V0Z"/><path transform="translate(887.99,505.00) scale(0.05023,-0.05023)" d="M418 -6.399832355406538Q339.30008382229676 -6.399832355406538 272.38348700754403 20.100167644593462Q205.46689019279128 46.60016764459346 156.11693210393963 94.883487007544Q106.76697401508801 143.16680637049456 79.20033528918692 208.01676445934618Q51.63369656328584 272.8667225481978 51.63369656328584 350Q51.63369656328584 427.1332774518022 79.20033528918692 491.9832355406538Q106.76697401508801 556.8331936295054 156.4002514668902 605.1165129924559Q206.03352891869238 653.3998323554065 272.9501257334451 679.8998323554065Q339.8667225481978 706.3998323554065 418.5666387259011 706.3998323554065Q495.49958088851633 706.3998323554065 562.032690695725 680.7166806370494Q628.5658005029338 655.0335289186924 675.2657166806371 603.8005029337804L628.1341156747695 556.9354568315172Q585.2338642078793 600.6689019279129 533.0502933780385 620.5188600167645Q480.8667225481978 640.3688181056161 421.39983235540655 640.3688181056161Q357.8994132439229 640.3688181056161 303.8323554065381 618.5519698239732Q249.7652975691534 596.7351215423303 209.71500419111484 557.4681475272423Q169.66471081307628 518.2011735121542 147.56454316848283 465.35079631181895Q125.46437552388934 412.50041911148367 125.46437552388934 350Q125.46437552388934 287.49958088851633 147.56454316848283 234.64920368818105Q169.66471081307628 181.79882648784576 209.71500419111484 142.53185247275775Q249.7652975691534 103.26487845766974 303.8323554065381 81.44803017602682Q357.8994132439229 59.6311818943839 421.39983235540655 59.6311818943839Q480.8667225481978 59.6311818943839 533.0502933780385 79.697820620285Q585.2338642078793 99.76445934618609 628.1341156747695 144.06454316848283L675.2657166806371 97.1994970662196Q628.5658005029338 45.96647108130763 562.032690695725 19.783319362950547Q495.49958088851633 -6.399832355406538 418 -6.399832355406538ZM390.2003352891869 -220.36630343671416Q365.80050293378036 -220.36630343671416 345.25062866722544 -214.43294216261523Q324.7007544006706 -208.49958088851633 306.5674769488684 -196.7661357921207L323.80050293378036 -159.10058675607712Q338.6336965632858 -168.40067057837385 355.1336965632858 -173.26739312657168Q371.6336965632858 -178.13411567476948 389.766974015088 -178.13411567476948Q419.6336965632858 -178.13411567476948 435.60058675607706 -165.75062866722547Q451.5674769488684 -153.36714165968147 451.5674769488684 -131.16680637049456Q451.5674769488684 -110.83319362950544 436.1839899413244 -98.08298407376361Q420.80050293378036 -85.3327745180218 389.6336965632858 -85.3327745180218H366.2673931265717L390.533948030176 6.133277451802179H433.3327745180218L418.0326906957251 -52.03352891869237Q459.43252305113157 -55.166806370494555 481.64920368818105 -77.58340318524728Q503.8658843252305 -100.0 503.8658843252305 -133.4333612740989Q503.8658843252305 -173.39983235540655 472.1994970662196 -196.88306789606037Q440.5331098072087 -220.36630343671416 390.2003352891869 -220.36630343671416Z"/><path transform="translate(931.14,505.00) scale(0.05023,-0.05023)" d="M2.200335289186924 0 322.1005867560771 700H394.7979882648784L715.2648784576697 0H637.3009220452641L342.96647108130765 657.3679798826488H373.36546521374686L79.03101424979045 0ZM127.89941324392288 186.63453478625314 149.79882648784576 246.9991617770327H557.0335289186924L579.4995808885163 186.63453478625314Z"/><path transform="translate(995.39,505.00) scale(0.05023,-0.05023)" d="M114.30092204526404 0V700H399.1332774518022Q511.26655490360434 700 595.6831517183571 655.3499580888516Q680.0997485331098 610.6999161777032 727.233025984912 531.9832355406538Q774.3663034367141 453.26655490360434 774.3663034367141 350Q774.3663034367141 246.73344509639566 727.233025984912 168.01676445934618Q680.0997485331098 89.30008382229673 595.6831517183571 44.650041911148364Q511.26655490360434 0 399.1332774518022 0ZM187.56496227996647 64.33109807208717H394.8667225481978Q488.2673931265717 64.33109807208717 556.7845766974015 100.81475272422463Q625.3017602682313 137.2984073763621 662.918692372171 201.5989103101425Q700.5356244761107 265.8994132439229 700.5356244761107 350Q700.5356244761107 434.6672254819782 662.918692372171 498.68440905280806Q625.3017602682313 562.7015926236379 556.7845766974015 599.1852472757754Q488.2673931265717 635.6689019279129 394.8667225481978 635.6689019279129H187.56496227996647Z"/><path transform="translate(1044.41,505.00) scale(0.05023,-0.05023)" d="M419.82318495316247 -6.399832355406538Q340.6798988250173 -6.399832355406538 273.3567138718548 20.38348700754401Q206.03352891869238 47.166806370494555 156.4002514668902 95.4501257334451Q106.76697401508801 143.73344509639566 79.20033528918692 208.44452114458525Q51.63369656328584 273.15559719277485 51.63369656328584 350Q51.63369656328584 426.84440280722515 79.20033528918692 491.5554788554148Q106.76697401508801 556.2665549036044 156.4723239364127 604.6316375726412Q206.17767385773737 652.9967202416782 273.30551756591814 679.6982762985424Q340.4333612740989 706.3998323554065 419.69991617770324 706.3998323554065Q498.96647108130765 706.3998323554065 565.9315304186703 679.7990543269744Q632.896589756033 653.1982762985424 682.4814046852252 605.015734964024Q732.0662196144174 556.8331936295054 759.6328583403185 491.92657166806373Q787.1994970662196 427.01994970662196 787.1994970662196 349.9433361274099Q787.1994970662196 272.8667225481978 759.6328583403185 208.01676445934618Q732.0662196144174 143.16680637049456 682.4814046852252 94.98426503597608Q632.896589756033 46.80172370145761 565.9315304186703 20.200945673025537Q498.96647108130765 -6.399832355406538 419.82318495316247 -6.399832355406538ZM419.69991617770324 59.6311818943839Q482.6336965632858 59.6311818943839 536.1760889137252 81.3157425407073Q589.7184812641644 103.00030318703072 629.4434820402969 142.46620356333935Q669.1684828164292 181.93210393964796 691.2686504610226 234.67022252447453Q713.3688181056161 287.4083411093011 713.3688181056161 350.17106074744186Q713.3688181056161 412.93378038558257 691.3323177335958 465.45217650032316Q669.2958173615755 517.9705726150637 629.5436990434212 557.4678787840008Q589.791580725267 596.965184952938 536.2126386442764 618.6670015292771Q482.6336965632858 640.3688181056161 419.69991617770324 640.3688181056161Q356.7661357921207 640.3688181056161 303.0556146811456 618.6486235387874Q249.34509357017055 596.9284289719587 209.49535210073742 557.3976748603307Q169.64561063130432 517.8669207487025 147.55499307759683 465.30404989697706Q125.46437552388934 412.74117904525167 125.46437552388934 350.1870186927851Q125.46437552388934 287.63285834031853 147.52888059132817 234.89473975549194Q169.59338565876703 182.15662117066535 209.39602225100967 142.4940691771181Q249.1986588432523 102.83151718357082 302.9823973176865 81.23134953897735Q356.7661357921207 59.6311818943839 419.69991617770324 59.6311818943839Z"/><path transform="translate(1114.78,505.00) scale(0.05023,-0.05023)" d="M250.40067057837385 0V635.6689019279129H4V700H570.0653813914502V635.6689019279129H323.6647108130763V0Z"/><path transform="translate(1151.15,505.00) scale(0.05023,-0.05023)" d="M114.30092204526404 0V700H375.6663872590109Q509.19949706621964 700 585.5993294216262 636.6668063704946Q661.9991617770327 573.3336127409891 661.9991617770327 460.36714165968147Q661.9991617770327 386.1005867560771 627.58256496228 332.6173512154233Q593.1659681475272 279.1341156747695 529.1160938809724 250.5008382229673Q465.06621961441743 221.86756077116513 375.6663872590109 221.86756077116513H154.7661357921207L187.56496227996647 255.7996647108131V0ZM592.035205364627 0 411.86839899413246 254H492.3989941324392L673.1324392288349 0ZM187.56496227996647 249.86672254819783 154.7661357921207 285.0653813914501H374.26655490360434Q479.1341156747695 285.0653813914501 533.6512992455994 331.21584241408215Q588.1684828164292 377.3663034367142 588.1684828164292 460.36714165968147Q588.1684828164292 544.3679798826488 533.6512992455994 590.0184409052808Q479.1341156747695 635.6689019279129 374.26655490360434 635.6689019279129H154.7661357921207L187.56496227996647 671.4341994970662Z"/><path transform="translate(1195.00,505.00) scale(0.05023,-0.05023)" d="M2.200335289186924 0 322.1005867560771 700H394.7979882648784L715.2648784576697 0H637.3009220452641L342.96647108130765 657.3679798826488H373.36546521374686L79.03101424979045 0ZM127.89941324392288 186.63453478625314 149.79882648784576 246.9991617770327H557.0335289186924L579.4995808885163 186.63453478625314Z"/><path transform="translate(1238.55,505.00) scale(0.05023,-0.05023)" d="M114.30092204526404 0V700H416.233025984912Q532.7326068734284 700 597.3658843252306 652.950125733445Q661.9991617770327 605.9002514668902 661.9991617770327 520.1668063704946Q661.9991617770327 463.30008382229676 635.4157585917853 424.23344509639566Q608.8323554065381 385.16680637049456 563.6487845766974 365.03352891869235Q518.4652137468566 344.9002514668902 463.6647108130763 344.9002514668902L481.2313495389774 369.233025984912Q548.0653813914502 369.233025984912 596.7489522212909 348.44970662196147Q645.4325230511316 327.6663872590109 672.149203688181 287.0997485331098Q698.8658843252305 246.53310980720872 698.8658843252305 186.96647108130762Q698.8658843252305 97.83319362950544 633.2493713327744 48.91659681475272Q567.6328583403185 0 436.233025984912 0ZM187.56496227996647 60.931265716680635H434.5666387259011Q527.3009220452641 60.931265716680635 576.1680637049456 92.49832355406538Q625.035205364627 124.06538139145013 625.035205364627 192.63285834031853Q625.035205364627 261.2003352891869 576.1680637049456 292.8340318524728Q527.3009220452641 324.4677284157586 434.5666387259011 324.4677284157586H180.2984073763621V385.3989941324392H411.16680637049456Q495.30092204526403 385.3989941324392 541.7347024308466 417.1827326068734Q588.1684828164292 448.96647108130765 588.1684828164292 512.2338642078793Q588.1684828164292 575.501257334451 541.7347024308466 607.2849958088852Q495.30092204526403 639.0687342833194 411.16680637049456 639.0687342833194H187.56496227996647Z"/><path transform="translate(1283.96,505.00) scale(0.05023,-0.05023)" d="M2.200335289186924 0 322.1005867560771 700H394.7979882648784L715.2648784576697 0H637.3009220452641L342.96647108130765 657.3679798826488H373.36546521374686L79.03101424979045 0ZM127.89941324392288 186.63453478625314 149.79882648784576 246.9991617770327H557.0335289186924L579.4995808885163 186.63453478625314Z"/><path transform="translate(1327.51,505.00) scale(0.05023,-0.05023)" d="M114.30092204526404 0V700H187.56496227996647V64.33109807208717H579.6328583403185V0Z"/><path transform="translate(1364.63,505.00) scale(0.05023,-0.05023)" d="M625.6018440905281 0V700H698.8658843252305V0ZM114.30092204526404 0V700H187.56496227996647V0ZM179.73176865046102 323.33445096395644V387.66554903604356H632.8683989941325V323.33445096395644Z"/><path transform="translate(1413.01,505.00) scale(0.05023,-0.05023)" d="M419.82318495316247 -6.399832355406538Q340.6798988250173 -6.399832355406538 273.3567138718548 20.38348700754401Q206.03352891869238 47.166806370494555 156.4002514668902 95.4501257334451Q106.76697401508801 143.73344509639566 79.20033528918692 208.44452114458525Q51.63369656328584 273.15559719277485 51.63369656328584 350Q51.63369656328584 426.84440280722515 79.20033528918692 491.5554788554148Q106.76697401508801 556.2665549036044 156.4723239364127 604.6316375726412Q206.17767385773737 652.9967202416782 273.30551756591814 679.6982762985424Q340.4333612740989 706.3998323554065 419.69991617770324 706.3998323554065Q498.96647108130765 706.3998323554065 565.9315304186703 679.7990543269744Q632.896589756033 653.1982762985424 682.4814046852252 605.015734964024Q732.0662196144174 556.8331936295054 759.6328583403185 491.92657166806373Q787.1994970662196 427.01994970662196 787.1994970662196 349.9433361274099Q787.1994970662196 272.8667225481978 759.6328583403185 208.01676445934618Q732.0662196144174 143.16680637049456 682.4814046852252 94.98426503597608Q632.896589756033 46.80172370145761 565.9315304186703 20.200945673025537Q498.96647108130765 -6.399832355406538 419.82318495316247 -6.399832355406538ZM419.69991617770324 59.6311818943839Q482.6336965632858 59.6311818943839 536.1760889137252 81.3157425407073Q589.7184812641644 103.00030318703072 629.4434820402969 142.46620356333935Q669.1684828164292 181.93210393964796 691.2686504610226 234.67022252447453Q713.3688181056161 287.4083411093011 713.3688181056161 350.17106074744186Q713.3688181056161 412.93378038558257 691.3323177335958 465.45217650032316Q669.2958173615755 517.9705726150637 629.5436990434212 557.4678787840008Q589.791580725267 596.965184952938 536.2126386442764 618.6670015292771Q482.6336965632858 640.3688181056161 419.69991617770324 640.3688181056161Q356.7661357921207 640.3688181056161 303.0556146811456 618.6486235387874Q249.34509357017055 596.9284289719587 209.49535210073742 557.3976748603307Q169.64561063130432 517.8669207487025 147.55499307759683 465.30404989697706Q125.46437552388934 412.74117904525167 125.46437552388934 350.1870186927851Q125.46437552388934 287.63285834031853 147.52888059132817 234.89473975549194Q169.59338565876703 182.15662117066535 209.39602225100967 142.4940691771181Q249.1986588432523 102.83151718357082 302.9823973176865 81.23134953897735Q356.7661357921207 59.6311818943839 419.69991617770324 59.6311818943839Z"/></g></svg>