<svg xmlns="http://www.w3.org/2000/svg" width="825" height="260" viewBox="0 0 825 260" role="img" aria-label="GSEG — Engenharia de Segurança do Trabalho">
  <title>GSEG — Logo horizontal</title>
  <desc>Monograma G + wordmark GSEG (serifada romana, Cinzel, convertida em curvas) + descritor (Inter, curvas). Verde-floresta #32472B sobre fundo claro. Refino vetorial fiel ao portfolio GSEG. Texto em contornos: independe de fonte instalada. A vetorizacao 1:1 definitiva ainda requer o arquivo-fonte original da cliente.</desc>
  <!-- Simbolo G ISOLADO (sem tile) — verde via mascara, recortes transparentes -->
  <mask id="glogo" maskUnits="userSpaceOnUse" x="0" y="0" width="825" height="260">
    <rect width="825" height="260" fill="#000"/>
    <circle cx="120" cy="130" r="62" fill="#fff"/>
    <circle cx="120" cy="130" r="35" fill="#000"/>
    <rect x="120" y="113" width="74" height="34" fill="#000"/>
    <rect x="115" y="122" width="52" height="15" rx="2" fill="#fff"/>
    <rect x="152" y="122" width="15" height="27" rx="2" fill="#fff"/>
  </mask>
  <rect width="825" height="260" fill="#32472B" mask="url(#glogo)"/>
  <!-- WORDMARK (curvas Cinzel Bold) -->
<g transform="translate(250.000,150.000)" fill="#32472B"><path transform="translate(0.000,0) scale(0.112000,-0.112000)" d="M755 280V115Q731 85 683.5 55.0Q636 25 569.5 5.5Q503 -14 423 -14Q309 -14 224.0 30.5Q139 75 92.0 157.0Q45 239 45 351Q45 463 91.5 544.0Q138 625 224.5 669.5Q311 714 429 714Q484 714 536.0 706.5Q588 699 632.0 687.0Q676 675 705 659L707 488H698Q679 556 643.0 596.5Q607 637 559.5 654.5Q512 672 459 672Q377 672 321.0 632.5Q265 593 236.5 520.0Q208 447 208 345Q208 249 234.5 177.5Q261 106 312.0 67.5Q363 29 436 28Q473 28 507.5 39.5Q542 51 568.0 73.0Q594 95 605 127L606 280Q606 325 555 325H539V335H820V325H805Q775 325 763 310Q754 299 755 280Z"/><path transform="translate(97.632,0) scale(0.112000,-0.112000)" d="M277 714Q297 714 326.5 712.0Q356 710 387 707Q399 705 409 704H476L474 683L463 557H453Q453 609 414.5 640.5Q376 672 312 672Q254 672 218.5 644.0Q183 616 181 576Q180 546 200.0 524.0Q220 502 251 483L442 359Q488 333 511.5 291.0Q535 249 532 193Q527 95 457.0 40.5Q387 -14 267 -14Q223 -14 181.5 -6.5Q140 1 108.0 14.5Q76 28 57 47Q49 69 50.0 100.0Q51 131 59.5 163.0Q68 195 81 216H90Q86 165 108.5 121.5Q131 78 174.5 52.5Q218 27 278 28Q344 29 380.0 61.5Q416 94 416 140Q416 171 397.5 196.0Q379 221 337 244L162 360Q109 390 85.0 437.0Q61 484 67 539Q71 591 97.0 630.5Q123 670 168.5 692.0Q214 714 277 714Z"/><path transform="translate(166.368,0) scale(0.112000,-0.112000)" d="M606 204 560 0H42V10H55Q81 10 99.5 28.5Q118 47 119 73V627Q118 653 99.5 671.5Q81 690 55 690H42V700H423Q445 700 469.5 703.0Q494 706 515.0 710.0Q536 714 545 718V543H535V555Q535 601 508 629Q485 652 448 657H269V366H401Q438 367 462.0 391.5Q486 416 486 452V460H496V230H486V239Q486 275 462.0 299.0Q438 323 401 324H269V43H400Q450 43 488.0 62.5Q526 82 553.0 118.5Q580 155 596 204Z"/><path transform="translate(241.152,0) scale(0.112000,-0.112000)" d="M755 280V115Q731 85 683.5 55.0Q636 25 569.5 5.5Q503 -14 423 -14Q309 -14 224.0 30.5Q139 75 92.0 157.0Q45 239 45 351Q45 463 91.5 544.0Q138 625 224.5 669.5Q311 714 429 714Q484 714 536.0 706.5Q588 699 632.0 687.0Q676 675 705 659L707 488H698Q679 556 643.0 596.5Q607 637 559.5 654.5Q512 672 459 672Q377 672 321.0 632.5Q265 593 236.5 520.0Q208 447 208 345Q208 249 234.5 177.5Q261 106 312.0 67.5Q363 29 436 28Q473 28 507.5 39.5Q542 51 568.0 73.0Q594 95 605 127L606 280Q606 325 555 325H539V335H820V325H805Q775 325 763 310Q754 299 755 280Z"/></g>
  <!-- DESCRITOR (curvas Inter Medium) -->
<g transform="translate(254.000,192.000)" fill="#4A4A4A"><path transform="translate(0.000,0) scale(0.006214,-0.006214)" d="M225 0V2048H1509V1782H534V1158H1442V893H534V266H1521V0Z"/><path transform="translate(15.152,0) scale(0.006214,-0.006214)" d="M1878 2048V0H1594L553 1502H534V0H225V2048H511L1553 544H1572V2048Z"/><path transform="translate(32.821,0) scale(0.006214,-0.006214)" d="M1611 1401Q1582 1492 1533.5 1564.5Q1485 1637 1418.0 1688.5Q1351 1740 1265.5 1767.0Q1180 1794 1078 1794Q905 1794 766.0 1705.0Q627 1616 546.5 1444.5Q466 1273 466 1025Q466 776 547.0 604.0Q628 432 769.0 343.0Q910 254 1090 254Q1257 254 1381.5 322.0Q1506 390 1574 514Q1640 633 1643 793H1137V1048H1942V815Q1942 557 1832.5 367.5Q1723 178 1530.5 75.0Q1338 -28 1090 -28Q812 -28 602.5 100.0Q393 228 276.0 463.5Q159 699 159 1023Q159 1268 227.0 1463.0Q295 1658 418.5 1794.5Q542 1931 709.5 2003.5Q877 2076 1076 2076Q1242 2076 1385.5 2027.0Q1529 1978 1641.5 1888.0Q1754 1798 1828.0 1674.5Q1902 1551 1928 1401Z"/><path transform="translate(50.528,0) scale(0.006214,-0.006214)" d="M225 0V2048H1509V1782H534V1158H1442V893H534V266H1521V0Z"/><path transform="translate(65.680,0) scale(0.006214,-0.006214)" d="M1878 2048V0H1594L553 1502H534V0H225V2048H511L1553 544H1572V2048Z"/><path transform="translate(83.349,0) scale(0.006214,-0.006214)" d="M225 0V2048H534V1158H1555V2048H1865V0H1555V893H534V0Z"/><path transform="translate(100.937,0) scale(0.006214,-0.006214)" d="M398 0H70L807 2048H1164L1901 0H1573L1385 542H586ZM1296 802 994 1676H978L675 802Z"/><path transform="translate(117.786,0) scale(0.006214,-0.006214)" d="M225 0V2048H955Q1193 2048 1350.5 1966.0Q1508 1884 1586.0 1739.5Q1664 1595 1664 1406Q1664 1218 1585.5 1075.5Q1507 933 1349 854Q1320 840 1289 828L1742 0H1390L974 775Q964 775 954 775H534V0ZM534 1041H926Q1076 1041 1170.5 1084.0Q1265 1127 1309.0 1209.0Q1353 1291 1353 1406Q1353 1522 1308.5 1607.0Q1264 1692 1169.5 1737.5Q1075 1783 922 1783H534Z"/><path transform="translate(133.671,0) scale(0.006214,-0.006214)" d="M534 2048V0H225V2048Z"/><path transform="translate(142.988,0) scale(0.006214,-0.006214)" d="M398 0H70L807 2048H1164L1901 0H1573L1385 542H586ZM1296 802 994 1676H978L675 802Z"/><path transform="translate(169.073,0) scale(0.006214,-0.006214)" d="M888 0H225V2048H909Q1210 2048 1426.0 1925.5Q1642 1803 1757.5 1574.5Q1873 1346 1873 1027Q1873 707 1756.5 477.0Q1640 247 1420.0 123.5Q1200 0 888 0ZM534 270H871Q1105 270 1260.0 358.5Q1415 447 1492.0 615.5Q1569 784 1569 1027Q1569 1268 1492.5 1436.0Q1416 1604 1265.0 1691.0Q1114 1778 890 1778H534Z"/><path transform="translate(186.301,0) scale(0.006214,-0.006214)" d="M225 0V2048H1509V1782H534V1158H1442V893H534V266H1521V0Z"/><path transform="translate(210.689,0) scale(0.006214,-0.006214)" d="M1342 1510Q1326 1652 1210.0 1730.5Q1094 1809 918 1809Q792 1809 700.0 1769.5Q608 1730 557.5 1661.5Q507 1593 507 1506Q507 1433 541.5 1380.0Q576 1327 632.5 1291.5Q689 1256 754.0 1232.5Q819 1209 879 1194L1079 1142Q1177 1118 1280.0 1077.0Q1383 1036 1471.0 969.0Q1559 902 1613.5 803.0Q1668 704 1668 566Q1668 392 1578.5 257.0Q1489 122 1319.5 44.0Q1150 -34 910 -34Q680 -34 512.0 39.0Q344 112 249.0 246.5Q154 381 144 566H454Q463 455 526.5 381.5Q590 308 689.5 272.5Q789 237 908 237Q1039 237 1141.5 278.5Q1244 320 1303.0 394.5Q1362 469 1362 569Q1362 660 1310.5 718.0Q1259 776 1171.5 814.0Q1084 852 974 881L732 947Q486 1014 342.5 1144.0Q199 1274 199 1488Q199 1665 295.0 1797.0Q391 1929 555.0 2002.5Q719 2076 925 2076Q1133 2076 1292.5 2003.0Q1452 1930 1544.0 1802.5Q1636 1675 1640 1510Z"/><path transform="translate(226.550,0) scale(0.006214,-0.006214)" d="M225 0V2048H1509V1782H534V1158H1442V893H534V266H1521V0Z"/><path transform="translate(241.702,0) scale(0.006214,-0.006214)" d="M1611 1401Q1582 1492 1533.5 1564.5Q1485 1637 1418.0 1688.5Q1351 1740 1265.5 1767.0Q1180 1794 1078 1794Q905 1794 766.0 1705.0Q627 1616 546.5 1444.5Q466 1273 466 1025Q466 776 547.0 604.0Q628 432 769.0 343.0Q910 254 1090 254Q1257 254 1381.5 322.0Q1506 390 1574 514Q1640 633 1643 793H1137V1048H1942V815Q1942 557 1832.5 367.5Q1723 178 1530.5 75.0Q1338 -28 1090 -28Q812 -28 602.5 100.0Q393 228 276.0 463.5Q159 699 159 1023Q159 1268 227.0 1463.0Q295 1658 418.5 1794.5Q542 1931 709.5 2003.5Q877 2076 1076 2076Q1242 2076 1385.5 2027.0Q1529 1978 1641.5 1888.0Q1754 1798 1828.0 1674.5Q1902 1551 1928 1401Z"/><path transform="translate(259.408,0) scale(0.006214,-0.006214)" d="M1542 2048H1852V701Q1852 486 1751.0 320.5Q1650 155 1467.0 60.5Q1284 -34 1038 -34Q793 -34 610.0 60.5Q427 155 326.0 320.5Q225 486 225 701V2048H534V726Q534 587 595.5 479.0Q657 371 770.0 309.5Q883 248 1038 248Q1194 248 1307.5 309.5Q1421 371 1481.5 479.0Q1542 587 1542 726Z"/><path transform="translate(276.916,0) scale(0.006214,-0.006214)" d="M225 0V2048H955Q1193 2048 1350.5 1966.0Q1508 1884 1586.0 1739.5Q1664 1595 1664 1406Q1664 1218 1585.5 1075.5Q1507 933 1349 854Q1320 840 1289 828L1742 0H1390L974 775Q964 775 954 775H534V0ZM534 1041H926Q1076 1041 1170.5 1084.0Q1265 1127 1309.0 1209.0Q1353 1291 1353 1406Q1353 1522 1308.5 1607.0Q1264 1692 1169.5 1737.5Q1075 1783 922 1783H534Z"/><path transform="translate(292.801,0) scale(0.006214,-0.006214)" d="M398 0H70L807 2048H1164L1901 0H1573L1385 542H586ZM1296 802 994 1676H978L675 802Z"/><path transform="translate(309.650,0) scale(0.006214,-0.006214)" d="M1878 2048V0H1594L553 1502H534V0H225V2048H511L1553 544H1572V2048Z"/><path transform="translate(327.319,0) scale(0.006214,-0.006214)" d="M1926 1382H1614Q1596 1482 1547.0 1558.0Q1498 1634 1427.0 1687.0Q1356 1740 1268.5 1767.0Q1181 1794 1083 1794Q906 1794 766.5 1705.0Q627 1616 546.5 1444.0Q466 1272 466 1024Q466 774 546.5 602.0Q627 430 767.0 342.0Q907 254 1082 254Q1179 254 1266.5 280.5Q1354 307 1425.0 359.0Q1496 411 1545.5 486.5Q1595 562 1614 660L1926 659Q1901 508 1829.5 381.5Q1758 255 1646.5 163.5Q1535 72 1392 22Q1287 -15 1167 -25L1155 -86Q1241 -99 1306.5 -155.0Q1372 -211 1372 -324Q1372 -460 1255.0 -543.5Q1138 -627 916 -627L910 -460Q1014 -460 1078.5 -430.0Q1143 -400 1144 -333Q1145 -266 1094.5 -239.0Q1044 -212 934 -202L971 -22Q770 -1 606 99Q398 225 278.5 461.0Q159 697 159 1024Q159 1352 279.0 1587.5Q399 1823 607.0 1949.5Q815 2076 1080 2076Q1243 2076 1384.5 2029.5Q1526 1983 1639.0 1893.5Q1752 1804 1826.0 1675.5Q1900 1547 1926 1382Z"/><path transform="translate(344.789,0) scale(0.006214,-0.006214)" d="M398 0H70L807 2048H1164L1901 0H1573L1385 542H586ZM1296 802 994 1676H978L675 802Z"/><path transform="translate(370.874,0) scale(0.006214,-0.006214)" d="M888 0H225V2048H909Q1210 2048 1426.0 1925.5Q1642 1803 1757.5 1574.5Q1873 1346 1873 1027Q1873 707 1756.5 477.0Q1640 247 1420.0 123.5Q1200 0 888 0ZM534 270H871Q1105 270 1260.0 358.5Q1415 447 1492.0 615.5Q1569 784 1569 1027Q1569 1268 1492.5 1436.0Q1416 1604 1265.0 1691.0Q1114 1778 890 1778H534Z"/><path transform="translate(388.102,0) scale(0.006214,-0.006214)" d="M2004 1024Q2004 696 1884.0 460.5Q1764 225 1555.5 98.5Q1347 -28 1082 -28Q816 -28 607.5 98.5Q399 225 279.0 461.0Q159 697 159 1024Q159 1352 279.0 1587.5Q399 1823 607.5 1949.5Q816 2076 1082 2076Q1347 2076 1555.5 1949.5Q1764 1823 1884.0 1587.5Q2004 1352 2004 1024ZM1698 1024Q1698 1274 1617.5 1445.5Q1537 1617 1397.5 1705.5Q1258 1794 1082 1794Q905 1794 766.0 1705.5Q627 1617 546.5 1445.5Q466 1274 466 1024Q466 774 546.5 602.5Q627 431 766.0 342.5Q905 254 1082 254Q1258 254 1397.5 342.5Q1537 431 1617.5 602.5Q1698 774 1698 1024Z"/><path transform="translate(415.380,0) scale(0.006214,-0.006214)" d="M124 1782V2048H1709V1782H1070V0H762V1782Z"/><path transform="translate(431.371,0) scale(0.006214,-0.006214)" d="M225 0V2048H955Q1193 2048 1350.5 1966.0Q1508 1884 1586.0 1739.5Q1664 1595 1664 1406Q1664 1218 1585.5 1075.5Q1507 933 1349 854Q1320 840 1289 828L1742 0H1390L974 775Q964 775 954 775H534V0ZM534 1041H926Q1076 1041 1170.5 1084.0Q1265 1127 1309.0 1209.0Q1353 1291 1353 1406Q1353 1522 1308.5 1607.0Q1264 1692 1169.5 1737.5Q1075 1783 922 1783H534Z"/><path transform="translate(447.257,0) scale(0.006214,-0.006214)" d="M398 0H70L807 2048H1164L1901 0H1573L1385 542H586ZM1296 802 994 1676H978L675 802Z"/><path transform="translate(464.105,0) scale(0.006214,-0.006214)" d="M225 0V2048H975Q1193 2048 1336.0 1976.5Q1479 1905 1550.0 1783.5Q1621 1662 1621 1510Q1621 1382 1574.0 1294.5Q1527 1207 1448.5 1154.5Q1370 1102 1276 1078V1058Q1378 1053 1475.5 992.5Q1573 932 1637.0 821.0Q1701 710 1701 551Q1701 394 1627.5 269.5Q1554 145 1401.0 72.5Q1248 0 1010 0ZM534 265H980Q1202 265 1298.0 351.0Q1394 437 1394 566Q1394 663 1345.0 744.0Q1296 825 1205.5 873.0Q1115 921 991 921H534ZM534 1162H948Q1052 1162 1135.5 1202.0Q1219 1242 1268.5 1314.5Q1318 1387 1318 1486Q1318 1613 1229.0 1699.0Q1140 1785 956 1785H534Z"/><path transform="translate(480.152,0) scale(0.006214,-0.006214)" d="M398 0H70L807 2048H1164L1901 0H1573L1385 542H586ZM1296 802 994 1676H978L675 802Z"/><path transform="translate(497.001,0) scale(0.006214,-0.006214)" d="M225 0V2048H534V266H1462V0Z"/><path transform="translate(511.476,0) scale(0.006214,-0.006214)" d="M225 0V2048H534V1158H1555V2048H1865V0H1555V893H534V0Z"/><path transform="translate(529.064,0) scale(0.006214,-0.006214)" d="M2004 1024Q2004 696 1884.0 460.5Q1764 225 1555.5 98.5Q1347 -28 1082 -28Q816 -28 607.5 98.5Q399 225 279.0 461.0Q159 697 159 1024Q159 1352 279.0 1587.5Q399 1823 607.5 1949.5Q816 2076 1082 2076Q1347 2076 1555.5 1949.5Q1764 1823 1884.0 1587.5Q2004 1352 2004 1024ZM1698 1024Q1698 1274 1617.5 1445.5Q1537 1617 1397.5 1705.5Q1258 1794 1082 1794Q905 1794 766.0 1705.5Q627 1617 546.5 1445.5Q466 1274 466 1024Q466 774 546.5 602.5Q627 431 766.0 342.5Q905 254 1082 254Q1258 254 1397.5 342.5Q1537 431 1617.5 602.5Q1698 774 1698 1024Z"/></g>
</svg>
