<svg xmlns="http://www.w3.org/2000/svg" viewBox="0 0 1000 1000" role="img" aria-label="GSEG — Engenharia de Segurança do Trabalho"><title>GSEG — Engenharia de Segurança do Trabalho</title><g fill="#49693F"><g transform="translate(355.0,355.1) scale(0.1812)"><path d="m758 130.5c-8.5 0.7-19.8 1.8-25 2.4-5.2 0.6-12.7 1.6-16.5 2.2-3.9 0.6-13.1 2.2-20.5 3.6-7.4 1.4-16 3.1-19 3.8-3 0.7-6.9 1.6-8.5 1.9l-3 0.7c11.5 11.9 26.8 27.5 41.4 42.4 14.6 14.8 36.3 36.9 48.1 49 11.9 12.1 43.2 44 69.5 71 26.4 26.9 56.5 57.7 67 68.3l19 19.2h295.5v298.5l263 263v-827.5c-616.6 0.2-699 0.6-711 1.5zm-255 65c-1.4 0.8-9.6 5.5-18.3 10.5-8.6 4.9-22.1 13.1-30 18.1-7.8 5-19.4 12.7-25.7 17.2-6.3 4.4-17.4 12.6-24.5 18.1-7.2 5.5-16.8 13.2-21.5 17-4.7 3.9-14.4 12.3-21.5 18.7-7.2 6.4-21.8 20.6-32.5 31.5-10.8 11-24.8 26-31.1 33.4-6.4 7.4-14.9 17.8-19 23-4.2 5.2-10.7 13.8-14.5 19-3.9 5.2-10.4 14.4-14.6 20.5-4.2 6-11.6 17.5-16.5 25.5-4.9 8-12.7 21.2-17.3 29.5-4.6 8.2-12.5 23.5-17.6 34-5.1 10.4-12 25.7-15.4 34-3.5 8.2-8.6 21.5-11.5 29.5-2.9 8-7.1 20.3-9.3 27.5-2.3 7.1-5.7 18.8-7.7 26-1.9 7.1-5.3 20.9-7.4 30.5-2.2 9.6-5.1 24.5-6.5 33-1.4 8.5-3.3 20.9-4.1 27.5-0.8 6.6-2.3 20.5-3.2 31-0.9 10.7-1.6 30.3-1.6 45-0.1 14.3 0.5 32.3 1.1 40 0.7 7.7 2.2 21.4 3.3 30.5 1.1 9.1 3.4 24.4 5 34 1.6 9.6 5 26.7 7.5 38 2.6 11.3 6.4 27 8.6 35 2.2 8 6.9 23.5 10.5 34.5 3.6 11 8.7 25.6 11.3 32.5 2.6 6.9 7.1 18.1 10 25 2.9 6.9 10.3 22.8 16.5 35.5 6.2 12.6 14.2 28.3 17.9 34.7 3.6 6.5 10 17.3 14.3 24 4.2 6.8 10.8 17 14.6 22.8 3.9 5.8 10.2 14.8 14.1 20 3.8 5.2 10.4 13.8 14.5 19 4.2 5.2 12.1 14.7 17.5 21 5.5 6.3 12.5 14.2 15.5 17.5 3.1 3.3 9.9 10.3 15.1 15.5 5.2 5.3 14.4 14.2 20.5 19.7 6 5.6 16.8 15 24 20.9 7.1 5.9 18.2 14.6 24.5 19.4 6.3 4.8 17.8 13 25.5 18.2 7.7 5.3 18.7 12.5 24.5 16 5.8 3.6 16.3 9.8 23.5 13.8 7.1 4 21.3 11.4 31.5 16.5 10.2 5 25.5 12.1 34 15.8 8.5 3.6 21.6 8.8 29 11.5 7.4 2.7 20.5 7.2 29 10 8.5 2.8 22.2 6.9 30.5 9.1 8.2 2.2 23.1 5.8 33 8 9.9 2.1 25.2 5.1 34 6.5 8.8 1.5 17.3 2.9 19 3.1 1.6 0.3 9.1 1.2 16.5 2 7.4 0.9 23.2 2.2 35 3 11.8 0.8 32.1 1.5 45 1.5 12.9 0 32.7-0.7 44-1.5 11.3-0.8 26.6-2.1 34-3 7.4-0.8 14.8-1.7 16.5-2 1.6-0.2 10.2-1.6 19-3.1 8.8-1.4 23.9-4.3 33.5-6.5 9.6-2.1 24.2-5.7 32.5-8 8.2-2.2 22-6.3 30.5-9.1 8.5-2.8 23.4-8.1 33-11.8 9.6-3.7 23.8-9.6 31.5-13 7.7-3.5 20.7-9.8 29-14.1 8.2-4.2 21.6-11.5 29.7-16.3 8.2-4.7 19.9-11.9 26-15.9 6.2-4 17.1-11.5 24.3-16.7 7.1-5.1 18.2-13.4 24.5-18.5 6.3-5 17.3-14.3 24.5-20.5 7.1-6.3 20-18.5 28.6-27 8.5-8.5 20-20.5 25.4-26.5 5.4-6.1 14.6-16.9 20.5-24 5.8-7.2 14.8-18.6 20-25.5 5.1-6.9 14.4-20.2 20.5-29.5 6.2-9.4 15.5-24 20.6-32.5 5.1-8.5 13.4-23.7 18.6-33.8l9.3-18.2c-3.5-4.3-11.3-12.5-19.5-21-8.3-8.5-21.1-21.8-28.5-29.5-7.4-7.7-20.7-21.4-29.6-30.5-8.8-9.1-22.5-23.3-30.5-31.5-7.9-8.3-20.9-21.8-28.9-30-8-8.3-21.5-22.2-30-31-8.5-8.8-22.5-23.2-31-32-8.5-8.8-22.3-23-30.5-31.5-8.3-8.5-21.6-22.3-29.6-30.5-7.9-8.3-27.7-28.7-43.9-45.5-16.2-16.8-36.7-37.9-45.5-47-8.8-9.1-23.1-23.8-31.8-32.8l-15.7-16.2c-306.9 0-396 0.3-396 0.7 0 0.5 96.8 97.5 215.1 215.8l215.1 215c-17.6 13.3-26.1 19.4-30.2 22.2-4.1 2.7-12 7.7-17.5 11-5.5 3.3-15.2 8.7-21.5 12-6.3 3.3-17.1 8.5-24 11.6-6.9 3-18.6 7.7-26 10.5-7.4 2.8-19.8 6.9-27.5 9-7.7 2.2-19.6 5.1-26.5 6.6-6.9 1.4-17.2 3.2-23 4-5.8 0.9-15.7 2-22 2.6-6.3 0.5-19.6 1-29.5 1-9.9 0-23.2-0.5-29.5-1-6.3-0.6-16.2-1.7-22-2.6-5.8-0.8-16.8-2.9-24.5-4.5-7.7-1.7-19.2-4.7-25.5-6.6-6.3-1.9-17.6-5.7-25-8.5-7.4-2.7-20.3-8.3-28.5-12.3-8.3-4-19.1-9.7-24-12.5-5-2.9-13.3-8-18.5-11.4-5.2-3.4-15.4-10.7-22.5-16.1-7.2-5.4-17.7-14-23.5-19-5.8-5.1-17.5-16.4-26-25.1-8.6-8.8-20.1-21.3-25.6-27.9-5.5-6.6-14.3-18.1-19.6-25.5-5.3-7.4-13.1-19.1-17.4-26-4.3-6.9-11.9-20.6-16.9-30.5-5.1-9.9-11.7-24.1-14.8-31.5-3.1-7.4-7.6-19.6-10.1-27-2.4-7.4-6.2-20.9-8.4-30-2.3-9.1-5-22.1-6.1-29-1.1-6.9-2.7-20.2-3.7-29.5-1.2-12.6-1.5-22.8-1.1-39.5 0.3-15.7 1.1-26.9 2.6-37 1.2-8 3.3-19.9 4.7-26.5 1.4-6.6 4.5-19 6.9-27.5 2.4-8.5 5.5-19.1 7-23.5 1.5-4.4 5.6-15.4 9.2-24.5 3.6-9.1 10.3-24.2 14.9-33.5 4.7-9.4 12-22.8 16.2-29.8 4.2-7 11.6-18.3 16.4-25 4.8-6.7 13.1-17.5 18.5-24 5.4-6.6 17.2-19.2 26.3-28.1 9.1-8.9 21.4-20.1 27.5-24.9 6-4.9 18-13.5 26.5-19.1 8.5-5.7 21.8-13.7 29.5-17.9 7.7-4.2 20.1-10.3 27.5-13.5 7.4-3.3 20.9-8.5 30-11.7 9.1-3.1 23.2-7.4 31.5-9.5 8.2-2.1 17.1-4.1 19.7-4.4 2.7-0.3 4.8-0.9 4.8-1.4 0-0.4-48-48.7-106.7-107.4-58.8-58.8-107.5-106.8-108.3-106.8-0.8 0-2.6 0.7-4 1.5z"/></g><path transform="translate(335.007,301.653) rotate(140.245) scale(0.03400,-0.03400) translate(-335.00,0)" d="M94.43973553002385 0V700H605.103403425103V590.7846303923694H223.69813570344678V109.2153696076306H618.974094949057V0ZM213.79297637112506 302.2155863862996V408.65510513765446H562.3620203771949V302.2155863862996Z"/><path transform="translate(306.914,328.881) rotate(131.548) scale(0.03400,-0.03400) translate(-405.00,0)" d="M94.43973553002385 0V700H201.37058313461955L640.0862779102537 160.81010188597443H586.6553219163234V700H715.6551051376545V0H608.7242575330588L170.00856275742467 539.1898981140256H223.43951875135485V0Z"/><path transform="translate(282.325,361.503) rotate(122.467) scale(0.03400,-0.03400) translate(-386.00,0)" d="M420.87069152395406 -9.9051593323217Q339.3534576197702 -9.9051593323217 270.46553219163235 16.594840667678298Q201.5776067634945 43.0948406676783 150.81898981140256 91.65949490570128Q100.06037285931065 140.22414914372425 71.9310643832647 205.91811185779318Q43.801755907218734 271.61207457186214 43.801755907218734 350Q43.801755907218734 428.38792542813786 71.9310643832647 494.0818881422068Q100.06037285931065 559.7758508562757 151.31898981140256 608.3405050942987Q202.5776067634945 656.9051593323217 271.59484066767834 683.4051593323217Q340.61207457186214 709.9051593323217 423.2586169520919 709.9051593323217Q511.58616952091916 709.9051593323217 583.0732169954476 681.0Q654.5602644699761 652.0948406676783 704.07749837416 595.8017559072188L621.8621287665294 515.9139388684154Q581.025905050943 557.3967049642315 533.3836440494256 576.8967049642315Q485.7413830479081 596.3967049642315 429.16377628441364 596.3967049642315Q373.6206373292868 596.3967049642315 326.88353566009107 578.3018642965533Q280.1464339908953 560.2070236288749 245.95675265553868 527.1940711034034Q211.76707132018208 494.18111857793195 193.23688489052677 449.12074571862127Q174.70669846087145 404.06037285931063 174.70669846087145 350Q174.70669846087145 297.0689356167353 193.23688489052677 251.9439085194017Q211.76707132018208 206.81888142206807 245.95675265553868 173.37058313461955Q280.1464339908953 139.92228484717106 326.31888142206805 121.76278994146978Q372.4913288532408 103.60329503576848 427.9051593323217 103.60329503576848Q480.0948406676783 103.60329503576848 528.5431389551268 120.15071536960764Q576.9914372425753 136.69813570344678 620.8621287665294 175.79297637112506L694.5257966616085 79.0948406676783Q640.103403425103 35.224149143724254 567.6810101885975 12.659494905701276Q495.2586169520919 -9.9051593323217 420.87069152395406 -9.9051593323217ZM694.5257966616085 79.0948406676783 572.2414914372425 96.03446780836765V357.68101018859744H694.5257966616085Z"/><path transform="translate(264.148,395.417) rotate(113.914) scale(0.03400,-0.03400) translate(-335.00,0)" d="M94.43973553002385 0V700H605.103403425103V590.7846303923694H223.69813570344678V109.2153696076306H618.974094949057V0ZM213.79297637112506 302.2155863862996V408.65510513765446H562.3620203771949V302.2155863862996Z"/><path transform="translate(251.046,432.280) rotate(105.217) scale(0.03400,-0.03400) translate(-405.00,0)" d="M94.43973553002385 0V700H201.37058313461955L640.0862779102537 160.81010188597443H586.6553219163234V700H715.6551051376545V0H608.7242575330588L170.00856275742467 539.1898981140256H223.43951875135485V0Z"/><path transform="translate(243.410,473.067) rotate(95.992) scale(0.03400,-0.03400) translate(-405.00,0)" d="M585.8794710600476 0V700H715.6551051376545V0ZM94.43973553002385 0V700H224.2153696076306V0ZM213.43951875135485 299.7931931497941V411.07749837416H595.7846303923694V299.7931931497941Z"/><path transform="translate(242.354,513.514) rotate(86.997) scale(0.03400,-0.03400) translate(-374.50,0)" d="M-5.068935616735313 0 309.6379796228051 700H438.025688272274L753.6032950357685 0H617.5690440060698L347.16377628441364 630.663884673748H399.1119661825276L128.70669846087145 0ZM140.36202037719488 162.05181010188596 175.11196618252762 264.1378712334706H552.8362237155864L588.4568610448732 162.05181010188596Z"/><path transform="translate(247.360,552.315) rotate(78.301) scale(0.03400,-0.03400) translate(-365.50,0)" d="M94.43973553002385 0V700H380.51723390418385Q520.6206373292868 700 600.2671797095165 633.7888033817472Q679.9137220897463 567.5776067634945 679.9137220897463 450.8017559072187Q679.9137220897463 374.155213526989 643.9611424235854 318.7026338608281Q608.0085627574247 263.25005419466726 541.2973661391719 233.5560914805983Q474.58616952091916 203.86212876652937 381.8103186646434 203.86212876652937H166.23271190114892L224.2153696076306 262.5517017125515V0ZM551.7501625840017 0 374.5260134402775 254.12930847604596H513.948189898114L692.3016475178842 0ZM224.2153696076306 248.74138304790807 166.23271190114892 311.3361153262519H376.38792542813786Q461.9569694342077 311.3361153262519 505.48287448515066 348.1378712334706Q549.0087795360937 384.93962714068937 549.0087795360937 450.8017559072187Q549.0087795360937 517.5345761977021 505.48287448515066 553.9009863429438Q461.9569694342077 590.2673964881856 376.38792542813786 590.2673964881856H166.23271190114892L224.2153696076306 653.7328202904835Z"/><path transform="translate(255.724,583.026) rotate(71.228) scale(0.03400,-0.03400) translate(-159.50,0)" d="M94.43973553002385 0V700H224.2153696076306V0Z"/><path transform="translate(267.940,612.749) rotate(64.087) scale(0.03400,-0.03400) translate(-374.50,0)" d="M-5.068935616735313 0 309.6379796228051 700H438.025688272274L753.6032950357685 0H617.5690440060698L347.16377628441364 630.663884673748H399.1119661825276L128.70669846087145 0ZM140.36202037719488 162.05181010188596 175.11196618252762 264.1378712334706H552.8362237155864L588.4568610448732 162.05181010188596Z"/><path transform="translate(302.829,666.396) rotate(49.838) scale(0.03400,-0.03400) translate(-413.00,0)" d="M94.43973553002385 0V700H400.2586169520919Q513.7758508562757 700 599.7284305224366 656.1939627140689Q685.6810101885975 612.3879254281379 733.9396271406894 533.9525796661609Q782.1982440927812 455.51723390418385 782.1982440927812 350Q782.1982440927812 244.61207457186214 733.9396271406894 166.11207457186214Q685.6810101885975 87.61207457186212 599.7284305224366 43.80603728593106Q513.7758508562757 0 400.2586169520919 0ZM224.2153696076306 109.99122046390634H393.7413830479081Q472.4742033383915 109.99122046390634 530.0001083893344 139.8748645133319Q587.5260134402774 169.7585085627574 619.409657489703 223.80164751788422Q651.2933015391286 277.844786473011 651.2933015391286 350Q651.2933015391286 423.155213526989 619.409657489703 476.69835248211575Q587.5260134402774 530.2414914372425 530.0001083893344 560.1251354866681Q472.4742033383915 590.0087795360937 393.7413830479081 590.0087795360937H224.2153696076306Z"/><path transform="translate(330.460,694.474) rotate(41.082) scale(0.03400,-0.03400) translate(-335.00,0)" d="M94.43973553002385 0V700H605.103403425103V590.7846303923694H223.69813570344678V109.2153696076306H618.974094949057V0ZM213.79297637112506 302.2155863862996V408.65510513765446H562.3620203771949V302.2155863862996Z"/><path transform="translate(379.372,728.064) rotate(27.875) scale(0.03400,-0.03400) translate(-314.50,0)" d="M311.03446780836765 -9.9051593323217Q229.12930847604596 -9.9051593323217 154.0948406676783 13.577606763494472Q79.06037285931065 37.06037285931065 34.767288098851076 74.28452200303491L80.29308476045958 174.8878170388034Q122.4568610448732 141.53435941903317 184.3922068068502 119.68090179926295Q246.32755256882723 97.82744417949274 311.2930847604596 97.82744417949274Q366.1896813353566 97.82744417949274 400.0560914805983 109.72832213310211Q433.92250162584 121.62920008671148 449.8880338174724 142.31888142206807Q465.8535660091047 163.00856275742467 465.8535660091047 188.93962714068937Q465.8535660091047 221 443.1121829611966 240.27156947756342Q420.3707999132885 259.54313895512684 383.6940711034034 271.39659657489705Q347.0173422935183 283.25005419466726 302.5345761977021 293.0560914805983Q258.05181010188596 302.8621287665294 213.50438976804682 316.42678300455236Q168.95696943420768 329.99143724257533 132.28024062432257 351.68539995664423Q95.60351181443747 373.3793626707132 72.86212876652938 409.1379796228051Q50.120745718621286 444.89659657489705 50.120745718621286 500.89659657489705Q50.120745718621286 558.0603728593106 80.52590505094298 605.4655321916323Q110.93106438326468 652.8706915239541 173.41811185779318 681.3879254281378Q235.9051593323217 709.9051593323217 331.7154779969651 709.9051593323217Q394.87925428137873 709.9051593323217 456.9137220897464 694.0344678083677Q518.948189898114 678.1637762844136 565.2412746585736 648.0344678083677L523.844786473011 546.6897897246911Q477.0689356167353 575.3018642965533 427.2628983308042 588.7372100585303Q377.45686104487316 602.1725558205072 330.58616952091916 602.1725558205072Q277.4309559939302 602.1725558205072 243.4998916106655 589.2070236288748Q209.56882722740082 576.2414914372425 194.1032950357685 554.9225016258399Q178.63776284413615 533.6035118144374 178.63776284413615 506.8017559072187Q178.63776284413615 474.87069152395406 201.37914589204422 455.66377628441364Q224.1205289399523 436.45686104487316 260.7972577498374 425.10340342510295Q297.4739865597225 413.74994580533274 342.0214068935617 403.57321699544764Q386.5688272274008 393.39648818556253 431.051593323217 380.26717970951654Q475.5343594190332 367.1378712334706 512.2110882289182 345.87925428137873Q548.8878170388034 324.6206373292868 571.6292000867115 288.92667461521785Q594.3705831346196 253.23271190114892 594.3705831346196 198.23271190114892Q594.3705831346196 142.0689356167353 563.5300780403209 94.66377628441361Q532.689572946022 47.25861695209191 469.8318339475395 18.676728809885105Q406.974094949057 -9.9051593323217 311.03446780836765 -9.9051593323217Z"/><path transform="translate(412.343,742.652) rotate(19.862) scale(0.03400,-0.03400) translate(-335.00,0)" d="M94.43973553002385 0V700H605.103403425103V590.7846303923694H223.69813570344678V109.2153696076306H618.974094949057V0ZM213.79297637112506 302.2155863862996V408.65510513765446H562.3620203771949V302.2155863862996Z"/><path transform="translate(449.406,752.991) rotate(11.309) scale(0.03400,-0.03400) translate(-386.00,0)" d="M420.87069152395406 -9.9051593323217Q339.3534576197702 -9.9051593323217 270.46553219163235 16.594840667678298Q201.5776067634945 43.0948406676783 150.81898981140256 91.65949490570128Q100.06037285931065 140.22414914372425 71.9310643832647 205.91811185779318Q43.801755907218734 271.61207457186214 43.801755907218734 350Q43.801755907218734 428.38792542813786 71.9310643832647 494.0818881422068Q100.06037285931065 559.7758508562757 151.31898981140256 608.3405050942987Q202.5776067634945 656.9051593323217 271.59484066767834 683.4051593323217Q340.61207457186214 709.9051593323217 423.2586169520919 709.9051593323217Q511.58616952091916 709.9051593323217 583.0732169954476 681.0Q654.5602644699761 652.0948406676783 704.07749837416 595.8017559072188L621.8621287665294 515.9139388684154Q581.025905050943 557.3967049642315 533.3836440494256 576.8967049642315Q485.7413830479081 596.3967049642315 429.16377628441364 596.3967049642315Q373.6206373292868 596.3967049642315 326.88353566009107 578.3018642965533Q280.1464339908953 560.2070236288749 245.95675265553868 527.1940711034034Q211.76707132018208 494.18111857793195 193.23688489052677 449.12074571862127Q174.70669846087145 404.06037285931063 174.70669846087145 350Q174.70669846087145 297.0689356167353 193.23688489052677 251.9439085194017Q211.76707132018208 206.81888142206807 245.95675265553868 173.37058313461955Q280.1464339908953 139.92228484717106 326.31888142206805 121.76278994146978Q372.4913288532408 103.60329503576848 427.9051593323217 103.60329503576848Q480.0948406676783 103.60329503576848 528.5431389551268 120.15071536960764Q576.9914372425753 136.69813570344678 620.8621287665294 175.79297637112506L694.5257966616085 79.0948406676783Q640.103403425103 35.224149143724254 567.6810101885975 12.659494905701276Q495.2586169520919 -9.9051593323217 420.87069152395406 -9.9051593323217ZM694.5257966616085 79.0948406676783 572.2414914372425 96.03446780836765V357.68101018859744H694.5257966616085Z"/><path transform="translate(489.616,757.791) rotate(2.307) scale(0.03400,-0.03400) translate(-394.50,0)" d="M394.61207457186214 -9.9051593323217Q251.02590505094298 -9.9051593323217 169.7328202904834 71.0Q88.43973553002385 151.9051593323217 88.43973553002385 305.4223932365055V700H218.2153696076306V309.8103186646434Q218.2153696076306 201.94818989811404 264.6292000867115 152.77574246694127Q311.0430305657923 103.60329503576848 395.7413830479081 103.60329503576848Q480.5690440060698 103.60329503576848 526.9182202471277 152.77574246694127Q573.2673964881856 201.94818989811404 573.2673964881856 309.8103186646434V700H700.7844136137004V305.4223932365055Q700.7844136137004 151.9051593323217 619.4913288532408 71.0Q538.1982440927812 -9.9051593323217 394.61207457186214 -9.9051593323217Z"/><path transform="translate(529.389,756.321) rotate(-6.541) scale(0.03400,-0.03400) translate(-365.50,0)" d="M94.43973553002385 0V700H380.51723390418385Q520.6206373292868 700 600.2671797095165 633.7888033817472Q679.9137220897463 567.5776067634945 679.9137220897463 450.8017559072187Q679.9137220897463 374.155213526989 643.9611424235854 318.7026338608281Q608.0085627574247 263.25005419466726 541.2973661391719 233.5560914805983Q474.58616952091916 203.86212876652937 381.8103186646434 203.86212876652937H166.23271190114892L224.2153696076306 262.5517017125515V0ZM551.7501625840017 0 374.5260134402775 254.12930847604596H513.948189898114L692.3016475178842 0ZM224.2153696076306 248.74138304790807 166.23271190114892 311.3361153262519H376.38792542813786Q461.9569694342077 311.3361153262519 505.48287448515066 348.1378712334706Q549.0087795360937 384.93962714068937 549.0087795360937 450.8017559072187Q549.0087795360937 517.5345761977021 505.48287448515066 553.9009863429438Q461.9569694342077 590.2673964881856 376.38792542813786 590.2673964881856H166.23271190114892L224.2153696076306 653.7328202904835Z"/><path transform="translate(567.807,748.930) rotate(-15.237) scale(0.03400,-0.03400) translate(-374.50,0)" d="M-5.068935616735313 0 309.6379796228051 700H438.025688272274L753.6032950357685 0H617.5690440060698L347.16377628441364 630.663884673748H399.1119661825276L128.70669846087145 0ZM140.36202037719488 162.05181010188596 175.11196618252762 264.1378712334706H552.8362237155864L588.4568610448732 162.05181010188596Z"/><path transform="translate(605.892,735.268) rotate(-24.232) scale(0.03400,-0.03400) translate(-405.00,0)" d="M94.43973553002385 0V700H201.37058313461955L640.0862779102537 160.81010188597443H586.6553219163234V700H715.6551051376545V0H608.7242575330588L170.00856275742467 539.1898981140256H223.43951875135485V0Z"/><path transform="translate(640.931,716.107) rotate(-33.110) scale(0.03400,-0.03400) translate(-359.00,0)" d="M418.12930847604594 -9.9051593323217Q337.61207457186214 -9.9051593323217 269.1594949057013 16.594840667678298Q200.70691523954042 43.0948406676783 150.38364404942553 91.65949490570128Q100.06037285931065 140.22414914372425 71.9310643832647 205.91811185779318Q43.801755907218734 271.61207457186214 43.801755907218734 350Q43.801755907218734 428.38792542813786 71.9310643832647 494.0818881422068Q100.06037285931065 559.7758508562757 150.81898981140256 608.3405050942987Q201.5776067634945 656.9051593323217 270.0301864296553 683.4051593323217Q338.48276609581615 709.9051593323217 419 709.9051593323217Q504.58616952091916 709.9051593323217 575.8146000433558 680.435345761977Q647.0430305657924 650.9655321916323 695.5602644699761 593.4138304790808L611.8621287665294 513.5260134402774Q573.896596574897 555.1380880121396 526.8189898114025 575.7673964881856Q479.7413830479081 596.3967049642315 424.9051593323217 596.3967049642315Q370.4913288532408 596.3967049642315 324.81888142206805 578.3018642965533Q279.1464339908953 560.2070236288749 245.45675265553868 527.1940711034034Q211.76707132018208 494.18111857793195 193.23688489052677 449.0560914805983Q174.70669846087145 403.9310643832647 174.70669846087145 350Q174.70669846087145 296.0689356167353 193.23688489052677 250.9439085194017Q211.76707132018208 205.81888142206807 245.45675265553868 172.80592889659658Q279.1464339908953 139.79297637112506 324.81888142206805 121.69813570344678Q370.4913288532408 103.60329503576848 424.9051593323217 103.60329503576848Q479.7413830479081 103.60329503576848 526.8189898114025 124.23260351181443Q573.896596574897 144.8619119878604 611.8621287665294 187.34467808367657L695.5602644699761 107.4568610448732Q647.0430305657924 50.03446780836766 575.8146000433558 20.064654238022978Q504.58616952091916 -9.9051593323217 418.12930847604594 -9.9051593323217ZM383.5776067634945 -227.8103186646434Q356.8362237155864 -227.8103186646434 333.6250270973336 -222.2456644266204Q310.41383047908084 -216.68101018859744 291.67244743117277 -206.8103186646434L314.4482982874485 -148.1896813353566Q330.67244743117277 -155.67244743117277 347.0431389551268 -159.67244743117277Q363.41383047908084 -163.67244743117277 382.2845220030349 -163.67244743117277Q410.89659657489705 -163.67244743117277 423.2026338608281 -154.06037285931063Q435.5086711467591 -144.44829828744852 435.5086711467591 -128.3534576197702Q435.5086711467591 -113.25861695209191 422.96125081291996 -104.27585085627575Q410.41383047908084 -95.29308476045958 382.31898981140256 -95.29308476045958H351.76728809885105L377.89659657489705 7.387925428137871H446.00856275742467L432.00856275742467 -49.38792542813787Q476.39648818556253 -53.64654238022979 498.00856275742467 -77.21119661825276Q519.6206373292869 -100.77585085627574 519.6206373292869 -132.87069152395404Q519.6206373292869 -176.77585085627575 482.2628983308043 -202.29308476045958Q444.9051593323217 -227.8103186646434 383.5776067634945 -227.8103186646434Z"/><path transform="translate(671.822,692.461) rotate(-41.757) scale(0.03400,-0.03400) translate(-374.50,0)" d="M-5.068935616735313 0 309.6379796228051 700H438.025688272274L753.6032950357685 0H617.5690440060698L347.16377628441364 630.663884673748H399.1119661825276L128.70669846087145 0ZM140.36202037719488 162.05181010188596 175.11196618252762 264.1378712334706H552.8362237155864L588.4568610448732 162.05181010188596Z"/><path transform="translate(713.906,644.251) rotate(-56.006) scale(0.03400,-0.03400) translate(-413.00,0)" d="M94.43973553002385 0V700H400.2586169520919Q513.7758508562757 700 599.7284305224366 656.1939627140689Q685.6810101885975 612.3879254281379 733.9396271406894 533.9525796661609Q782.1982440927812 455.51723390418385 782.1982440927812 350Q782.1982440927812 244.61207457186214 733.9396271406894 166.11207457186214Q685.6810101885975 87.61207457186212 599.7284305224366 43.80603728593106Q513.7758508562757 0 400.2586169520919 0ZM224.2153696076306 109.99122046390634H393.7413830479081Q472.4742033383915 109.99122046390634 530.0001083893344 139.8748645133319Q587.5260134402774 169.7585085627574 619.409657489703 223.80164751788422Q651.2933015391286 277.844786473011 651.2933015391286 350Q651.2933015391286 423.155213526989 619.409657489703 476.69835248211575Q587.5260134402774 530.2414914372425 530.0001083893344 560.1251354866681Q472.4742033383915 590.0087795360937 393.7413830479081 590.0087795360937H224.2153696076306Z"/><path transform="translate(734.605,607.352) rotate(-65.412) scale(0.03400,-0.03400) translate(-421.00,0)" d="M421.6419932608456 -9.9051593323217Q340.24951871332354 -9.9051593323217 271.042871214455 17.094840667678298Q201.83622371558639 44.0948406676783 151.0129525254715 92.72414914372425Q100.1896813353566 141.3534576197702 71.99571862128766 206.83032102066926Q43.801755907218734 272.3071844215683 43.801755907218734 350.06095971013593Q43.801755907218734 427.81473499870356 71.99614679504941 493.20292973031394Q100.19053768288009 558.5911244619243 151.12412655096423 607.3737785935325Q202.05771541904838 656.1564327251407 270.95487834101715 683.0307960287312Q339.8520412629859 709.9051593323217 421.38792542813786 709.9051593323217Q503.03446780836765 709.9051593323217 571.6261687507844 683.1856505615149Q640.2178696932011 656.4661417907082 690.9662456713213 607.9639788882932Q741.7146216494416 559.4618159858784 769.9090125372722 493.77314731658976Q798.103403425103 428.0844786473011 798.103403425103 349.97389055774056Q798.103403425103 271.86330246818 769.909440711034 206.17303428199807Q741.7154779969651 140.48276609581617 690.966673845083 92.00831215255398Q640.2178696932011 43.5338582092918 571.6261687507844 16.81434943848505Q503.03446780836765 -9.9051593323217 421.6419932608456 -9.9051593323217ZM421.38213549637464 103.60329503576848Q474.41383047908084 103.60329503576848 519.0861193406718 121.82781316446122Q563.7584082022626 140.05233129315394 596.9482481072012 173.30629788156506Q630.1380880121396 206.56026446997615 648.6682744417949 251.51279607671512Q667.1984608714503 296.46532768345406 667.1984608714503 350.2628502713824Q667.1984608714503 404.06037285931063 648.7661049501044 448.6752810676101Q630.3337490287585 493.2901892759096 597.1022405739844 526.5924136980951Q563.8707321192104 559.8946381202807 519.1480712309088 578.1456715422561Q474.42541034260734 596.3967049642315 421.39371535990114 596.3967049642315Q368.3620203771949 596.3967049642315 323.43138650662394 578.1174321018241Q278.500752636053 559.8381592394165 245.11923740187112 526.4845390356446Q211.73772216768924 493.13091883187263 193.22221031428035 448.44767117772756Q174.70669846087145 403.7644235235824 174.70669846087145 350.2873710941129Q174.70669846087145 296.8103186646434 193.1820861232849 251.85778705790443Q211.65747378569836 206.9052554511655 244.9666081263198 173.34911591114528Q278.27574246694127 139.79297637112506 323.3130914903048 121.69813570344678Q368.3504405136684 103.60329503576848 421.38213549637464 103.60329503576848Z"/><path transform="translate(753.401,548.497) rotate(-79.165) scale(0.03400,-0.03400) translate(-301.00,0)" d="M235.99143724257533 0V590.1380880121396H4V700H597.7585085627575V590.1380880121396H365.7670713201821V0Z"/><path transform="translate(757.715,512.122) rotate(-87.307) scale(0.03400,-0.03400) translate(-365.50,0)" d="M94.43973553002385 0V700H380.51723390418385Q520.6206373292868 700 600.2671797095165 633.7888033817472Q679.9137220897463 567.5776067634945 679.9137220897463 450.8017559072187Q679.9137220897463 374.155213526989 643.9611424235854 318.7026338608281Q608.0085627574247 263.25005419466726 541.2973661391719 233.5560914805983Q474.58616952091916 203.86212876652937 381.8103186646434 203.86212876652937H166.23271190114892L224.2153696076306 262.5517017125515V0ZM551.7501625840017 0 374.5260134402775 254.12930847604596H513.948189898114L692.3016475178842 0ZM224.2153696076306 248.74138304790807 166.23271190114892 311.3361153262519H376.38792542813786Q461.9569694342077 311.3361153262519 505.48287448515066 348.1378712334706Q549.0087795360937 384.93962714068937 549.0087795360937 450.8017559072187Q549.0087795360937 517.5345761977021 505.48287448515066 553.9009863429438Q461.9569694342077 590.2673964881856 376.38792542813786 590.2673964881856H166.23271190114892L224.2153696076306 653.7328202904835Z"/><path transform="translate(756.585,473.016) rotate(-96.004) scale(0.03400,-0.03400) translate(-374.50,0)" d="M-5.068935616735313 0 309.6379796228051 700H438.025688272274L753.6032950357685 0H617.5690440060698L347.16377628441364 630.663884673748H399.1119661825276L128.70669846087145 0ZM140.36202037719488 162.05181010188596 175.11196618252762 264.1378712334706H552.8362237155864L588.4568610448732 162.05181010188596Z"/><path transform="translate(749.425,434.037) rotate(-104.813) scale(0.03400,-0.03400) translate(-380.50,0)" d="M94.43973553002385 0V700H422.2930847604596Q548.1378712334706 700 614.0904508996315 650.6767288098852Q680.0430305657924 601.3534576197702 680.0430305657924 517.8706915239541Q680.0430305657924 462.2586169520919 654.0257966616085 422.5Q628.0085627574247 382.7413830479081 584.6335898547583 361.3534576197702Q541.2586169520919 339.96553219163235 489.7328202904834 339.96553219163235L507.99143724257533 375.68101018859744Q567.3534576197702 375.68101018859744 614.2284305224366 354.4223932365055Q661.103403425103 333.1637762844136 688.3792542813787 291.8405050942987Q715.6551051376545 250.51723390418383 715.6551051376545 190.38792542813786Q715.6551051376545 100.25861695209191 646.6852915673098 50.129308476045956Q577.7154779969651 0 442.2930847604596 0ZM223.69813570344678 102.31021027530892H434.48276609581615Q507.4397355300238 102.31021027530892 546.0949490570127 126.32316280078041Q584.7501625840017 150.3361153262519 584.7501625840017 202.58616952091916Q584.7501625840017 254.83622371558639 546.0949490570127 279.2845220030349Q507.4397355300238 303.7328202904834 434.48276609581615 303.7328202904834H213.79297637112506V404.87925428137873H407.7069152395404Q475.5690440060698 404.87925428137873 512.3535660091047 428.82755256882723Q549.1380880121396 452.7758508562757 549.1380880121396 501.2845220030349Q549.1380880121396 549.92250162584 512.3535660091047 573.8061456752655Q475.5690440060698 597.6897897246911 407.7069152395404 597.6897897246911H223.69813570344678Z"/><path transform="translate(736.380,396.615) rotate(-113.623) scale(0.03400,-0.03400) translate(-374.50,0)" d="M-5.068935616735313 0 309.6379796228051 700H438.025688272274L753.6032950357685 0H617.5690440060698L347.16377628441364 630.663884673748H399.1119661825276L128.70669846087145 0ZM140.36202037719488 162.05181010188596 175.11196618252762 264.1378712334706H552.8362237155864L588.4568610448732 162.05181010188596Z"/><path transform="translate(719.222,363.964) rotate(-121.821) scale(0.03400,-0.03400) translate(-299.50,0)" d="M94.43973553002385 0V700H224.2153696076306V109.8619119878604H589.844786473011V0Z"/><path transform="translate(696.915,333.301) rotate(-130.250) scale(0.03400,-0.03400) translate(-405.00,0)" d="M585.8794710600476 0V700H715.6551051376545V0ZM94.43973553002385 0V700H224.2153696076306V0ZM213.43951875135485 299.7931931497941V411.07749837416H595.7846303923694V299.7931931497941Z"/><path transform="translate(667.230,303.536) rotate(-139.596) scale(0.03400,-0.03400) translate(-421.00,0)" d="M421.6419932608456 -9.9051593323217Q340.24951871332354 -9.9051593323217 271.042871214455 17.094840667678298Q201.83622371558639 44.0948406676783 151.0129525254715 92.72414914372425Q100.1896813353566 141.3534576197702 71.99571862128766 206.83032102066926Q43.801755907218734 272.3071844215683 43.801755907218734 350.06095971013593Q43.801755907218734 427.81473499870356 71.99614679504941 493.20292973031394Q100.19053768288009 558.5911244619243 151.12412655096423 607.3737785935325Q202.05771541904838 656.1564327251407 270.95487834101715 683.0307960287312Q339.8520412629859 709.9051593323217 421.38792542813786 709.9051593323217Q503.03446780836765 709.9051593323217 571.6261687507844 683.1856505615149Q640.2178696932011 656.4661417907082 690.9662456713213 607.9639788882932Q741.7146216494416 559.4618159858784 769.9090125372722 493.77314731658976Q798.103403425103 428.0844786473011 798.103403425103 349.97389055774056Q798.103403425103 271.86330246818 769.909440711034 206.17303428199807Q741.7154779969651 140.48276609581617 690.966673845083 92.00831215255398Q640.2178696932011 43.5338582092918 571.6261687507844 16.81434943848505Q503.03446780836765 -9.9051593323217 421.6419932608456 -9.9051593323217ZM421.38213549637464 103.60329503576848Q474.41383047908084 103.60329503576848 519.0861193406718 121.82781316446122Q563.7584082022626 140.05233129315394 596.9482481072012 173.30629788156506Q630.1380880121396 206.56026446997615 648.6682744417949 251.51279607671512Q667.1984608714503 296.46532768345406 667.1984608714503 350.2628502713824Q667.1984608714503 404.06037285931063 648.7661049501044 448.6752810676101Q630.3337490287585 493.2901892759096 597.1022405739844 526.5924136980951Q563.8707321192104 559.8946381202807 519.1480712309088 578.1456715422561Q474.42541034260734 596.3967049642315 421.39371535990114 596.3967049642315Q368.3620203771949 596.3967049642315 323.43138650662394 578.1174321018241Q278.500752636053 559.8381592394165 245.11923740187112 526.4845390356446Q211.73772216768924 493.13091883187263 193.22221031428035 448.44767117772756Q174.70669846087145 403.7644235235824 174.70669846087145 350.2873710941129Q174.70669846087145 296.8103186646434 193.1820861232849 251.85778705790443Q211.65747378569836 206.9052554511655 244.9666081263198 173.34911591114528Q278.27574246694127 139.79297637112506 323.3130914903048 121.69813570344678Q368.3504405136684 103.60329503576848 421.38213549637464 103.60329503576848Z"/><path transform="translate(450.214,246.849) rotate(348.874) scale(0.03100,-0.03100) translate(-386.00,0)" d="M420.87069152395406 -9.9051593323217Q339.3534576197702 -9.9051593323217 270.46553219163235 16.594840667678298Q201.5776067634945 43.0948406676783 150.81898981140256 91.65949490570128Q100.06037285931065 140.22414914372425 71.9310643832647 205.91811185779318Q43.801755907218734 271.61207457186214 43.801755907218734 350Q43.801755907218734 428.38792542813786 71.9310643832647 494.0818881422068Q100.06037285931065 559.7758508562757 151.31898981140256 608.3405050942987Q202.5776067634945 656.9051593323217 271.59484066767834 683.4051593323217Q340.61207457186214 709.9051593323217 423.2586169520919 709.9051593323217Q511.58616952091916 709.9051593323217 583.0732169954476 681.0Q654.5602644699761 652.0948406676783 704.07749837416 595.8017559072188L621.8621287665294 515.9139388684154Q581.025905050943 557.3967049642315 533.3836440494256 576.8967049642315Q485.7413830479081 596.3967049642315 429.16377628441364 596.3967049642315Q373.6206373292868 596.3967049642315 326.88353566009107 578.3018642965533Q280.1464339908953 560.2070236288749 245.95675265553868 527.1940711034034Q211.76707132018208 494.18111857793195 193.23688489052677 449.12074571862127Q174.70669846087145 404.06037285931063 174.70669846087145 350Q174.70669846087145 297.0689356167353 193.23688489052677 251.9439085194017Q211.76707132018208 206.81888142206807 245.95675265553868 173.37058313461955Q280.1464339908953 139.92228484717106 326.31888142206805 121.76278994146978Q372.4913288532408 103.60329503576848 427.9051593323217 103.60329503576848Q480.0948406676783 103.60329503576848 528.5431389551268 120.15071536960764Q576.9914372425753 136.69813570344678 620.8621287665294 175.79297637112506L694.5257966616085 79.0948406676783Q640.103403425103 35.224149143724254 567.6810101885975 12.659494905701276Q495.2586169520919 -9.9051593323217 420.87069152395406 -9.9051593323217ZM694.5257966616085 79.0948406676783 572.2414914372425 96.03446780836765V357.68101018859744H694.5257966616085Z"/><path transform="translate(483.626,242.520) rotate(356.361) scale(0.03100,-0.03100) translate(-314.50,0)" d="M311.03446780836765 -9.9051593323217Q229.12930847604596 -9.9051593323217 154.0948406676783 13.577606763494472Q79.06037285931065 37.06037285931065 34.767288098851076 74.28452200303491L80.29308476045958 174.8878170388034Q122.4568610448732 141.53435941903317 184.3922068068502 119.68090179926295Q246.32755256882723 97.82744417949274 311.2930847604596 97.82744417949274Q366.1896813353566 97.82744417949274 400.0560914805983 109.72832213310211Q433.92250162584 121.62920008671148 449.8880338174724 142.31888142206807Q465.8535660091047 163.00856275742467 465.8535660091047 188.93962714068937Q465.8535660091047 221 443.1121829611966 240.27156947756342Q420.3707999132885 259.54313895512684 383.6940711034034 271.39659657489705Q347.0173422935183 283.25005419466726 302.5345761977021 293.0560914805983Q258.05181010188596 302.8621287665294 213.50438976804682 316.42678300455236Q168.95696943420768 329.99143724257533 132.28024062432257 351.68539995664423Q95.60351181443747 373.3793626707132 72.86212876652938 409.1379796228051Q50.120745718621286 444.89659657489705 50.120745718621286 500.89659657489705Q50.120745718621286 558.0603728593106 80.52590505094298 605.4655321916323Q110.93106438326468 652.8706915239541 173.41811185779318 681.3879254281378Q235.9051593323217 709.9051593323217 331.7154779969651 709.9051593323217Q394.87925428137873 709.9051593323217 456.9137220897464 694.0344678083677Q518.948189898114 678.1637762844136 565.2412746585736 648.0344678083677L523.844786473011 546.6897897246911Q477.0689356167353 575.3018642965533 427.2628983308042 588.7372100585303Q377.45686104487316 602.1725558205072 330.58616952091916 602.1725558205072Q277.4309559939302 602.1725558205072 243.4998916106655 589.2070236288748Q209.56882722740082 576.2414914372425 194.1032950357685 554.9225016258399Q178.63776284413615 533.6035118144374 178.63776284413615 506.8017559072187Q178.63776284413615 474.87069152395406 201.37914589204422 455.66377628441364Q224.1205289399523 436.45686104487316 260.7972577498374 425.10340342510295Q297.4739865597225 413.74994580533274 342.0214068935617 403.57321699544764Q386.5688272274008 393.39648818556253 431.051593323217 380.26717970951654Q475.5343594190332 367.1378712334706 512.2110882289182 345.87925428137873Q548.8878170388034 324.6206373292868 571.6292000867115 288.92667461521785Q594.3705831346196 253.23271190114892 594.3705831346196 198.23271190114892Q594.3705831346196 142.0689356167353 563.5300780403209 94.66377628441361Q532.689572946022 47.25861695209191 469.8318339475395 18.676728809885105Q406.974094949057 -9.9051593323217 311.03446780836765 -9.9051593323217Z"/><path transform="translate(515.740,242.481) rotate(363.498) scale(0.03100,-0.03100) translate(-335.00,0)" d="M94.43973553002385 0V700H605.103403425103V590.7846303923694H223.69813570344678V109.2153696076306H618.974094949057V0ZM213.79297637112506 302.2155863862996V408.65510513765446H562.3620203771949V302.2155863862996Z"/><path transform="translate(549.786,246.849) rotate(371.126) scale(0.03100,-0.03100) translate(-386.00,0)" d="M420.87069152395406 -9.9051593323217Q339.3534576197702 -9.9051593323217 270.46553219163235 16.594840667678298Q201.5776067634945 43.0948406676783 150.81898981140256 91.65949490570128Q100.06037285931065 140.22414914372425 71.9310643832647 205.91811185779318Q43.801755907218734 271.61207457186214 43.801755907218734 350Q43.801755907218734 428.38792542813786 71.9310643832647 494.0818881422068Q100.06037285931065 559.7758508562757 151.31898981140256 608.3405050942987Q202.5776067634945 656.9051593323217 271.59484066767834 683.4051593323217Q340.61207457186214 709.9051593323217 423.2586169520919 709.9051593323217Q511.58616952091916 709.9051593323217 583.0732169954476 681.0Q654.5602644699761 652.0948406676783 704.07749837416 595.8017559072188L621.8621287665294 515.9139388684154Q581.025905050943 557.3967049642315 533.3836440494256 576.8967049642315Q485.7413830479081 596.3967049642315 429.16377628441364 596.3967049642315Q373.6206373292868 596.3967049642315 326.88353566009107 578.3018642965533Q280.1464339908953 560.2070236288749 245.95675265553868 527.1940711034034Q211.76707132018208 494.18111857793195 193.23688489052677 449.12074571862127Q174.70669846087145 404.06037285931063 174.70669846087145 350Q174.70669846087145 297.0689356167353 193.23688489052677 251.9439085194017Q211.76707132018208 206.81888142206807 245.95675265553868 173.37058313461955Q280.1464339908953 139.92228484717106 326.31888142206805 121.76278994146978Q372.4913288532408 103.60329503576848 427.9051593323217 103.60329503576848Q480.0948406676783 103.60329503576848 528.5431389551268 120.15071536960764Q576.9914372425753 136.69813570344678 620.8621287665294 175.79297637112506L694.5257966616085 79.0948406676783Q640.103403425103 35.224149143724254 567.6810101885975 12.659494905701276Q495.2586169520919 -9.9051593323217 420.87069152395406 -9.9051593323217ZM694.5257966616085 79.0948406676783 572.2414914372425 96.03446780836765V357.68101018859744H694.5257966616085Z"/></g></svg>