<svg xmlns="http://www.w3.org/2000/svg" viewBox="0 0 1600 1599" role="img" aria-label="GSEG — símbolo"><title>GSEG — símbolo</title><path fill="#E0CFAE" d="m758 130.5c-8.5 0.7-19.8 1.8-25 2.4-5.2 0.6-12.7 1.6-16.5 2.2-3.9 0.6-13.1 2.2-20.5 3.6-7.4 1.4-16 3.1-19 3.8-3 0.7-6.9 1.6-8.5 1.9l-3 0.7c11.5 11.9 26.8 27.5 41.4 42.4 14.6 14.8 36.3 36.9 48.1 49 11.9 12.1 43.2 44 69.5 71 26.4 26.9 56.5 57.7 67 68.3l19 19.2h295.5v298.5l263 263v-827.5c-616.6 0.2-699 0.6-711 1.5zm-255 65c-1.4 0.8-9.6 5.5-18.3 10.5-8.6 4.9-22.1 13.1-30 18.1-7.8 5-19.4 12.7-25.7 17.2-6.3 4.4-17.4 12.6-24.5 18.1-7.2 5.5-16.8 13.2-21.5 17-4.7 3.9-14.4 12.3-21.5 18.7-7.2 6.4-21.8 20.6-32.5 31.5-10.8 11-24.8 26-31.1 33.4-6.4 7.4-14.9 17.8-19 23-4.2 5.2-10.7 13.8-14.5 19-3.9 5.2-10.4 14.4-14.6 20.5-4.2 6-11.6 17.5-16.5 25.5-4.9 8-12.7 21.2-17.3 29.5-4.6 8.2-12.5 23.5-17.6 34-5.1 10.4-12 25.7-15.4 34-3.5 8.2-8.6 21.5-11.5 29.5-2.9 8-7.1 20.3-9.3 27.5-2.3 7.1-5.7 18.8-7.7 26-1.9 7.1-5.3 20.9-7.4 30.5-2.2 9.6-5.1 24.5-6.5 33-1.4 8.5-3.3 20.9-4.1 27.5-0.8 6.6-2.3 20.5-3.2 31-0.9 10.7-1.6 30.3-1.6 45-0.1 14.3 0.5 32.3 1.1 40 0.7 7.7 2.2 21.4 3.3 30.5 1.1 9.1 3.4 24.4 5 34 1.6 9.6 5 26.7 7.5 38 2.6 11.3 6.4 27 8.6 35 2.2 8 6.9 23.5 10.5 34.5 3.6 11 8.7 25.6 11.3 32.5 2.6 6.9 7.1 18.1 10 25 2.9 6.9 10.3 22.8 16.5 35.5 6.2 12.6 14.2 28.3 17.9 34.7 3.6 6.5 10 17.3 14.3 24 4.2 6.8 10.8 17 14.6 22.8 3.9 5.8 10.2 14.8 14.1 20 3.8 5.2 10.4 13.8 14.5 19 4.2 5.2 12.1 14.7 17.5 21 5.5 6.3 12.5 14.2 15.5 17.5 3.1 3.3 9.9 10.3 15.1 15.5 5.2 5.3 14.4 14.2 20.5 19.7 6 5.6 16.8 15 24 20.9 7.1 5.9 18.2 14.6 24.5 19.4 6.3 4.8 17.8 13 25.5 18.2 7.7 5.3 18.7 12.5 24.5 16 5.8 3.6 16.3 9.8 23.5 13.8 7.1 4 21.3 11.4 31.5 16.5 10.2 5 25.5 12.1 34 15.8 8.5 3.6 21.6 8.8 29 11.5 7.4 2.7 20.5 7.2 29 10 8.5 2.8 22.2 6.9 30.5 9.1 8.2 2.2 23.1 5.8 33 8 9.9 2.1 25.2 5.1 34 6.5 8.8 1.5 17.3 2.9 19 3.1 1.6 0.3 9.1 1.2 16.5 2 7.4 0.9 23.2 2.2 35 3 11.8 0.8 32.1 1.5 45 1.5 12.9 0 32.7-0.7 44-1.5 11.3-0.8 26.6-2.1 34-3 7.4-0.8 14.8-1.7 16.5-2 1.6-0.2 10.2-1.6 19-3.1 8.8-1.4 23.9-4.3 33.5-6.5 9.6-2.1 24.2-5.7 32.5-8 8.2-2.2 22-6.3 30.5-9.1 8.5-2.8 23.4-8.1 33-11.8 9.6-3.7 23.8-9.6 31.5-13 7.7-3.5 20.7-9.8 29-14.1 8.2-4.2 21.6-11.5 29.7-16.3 8.2-4.7 19.9-11.9 26-15.9 6.2-4 17.1-11.5 24.3-16.7 7.1-5.1 18.2-13.4 24.5-18.5 6.3-5 17.3-14.3 24.5-20.5 7.1-6.3 20-18.5 28.6-27 8.5-8.5 20-20.5 25.4-26.5 5.4-6.1 14.6-16.9 20.5-24 5.8-7.2 14.8-18.6 20-25.5 5.1-6.9 14.4-20.2 20.5-29.5 6.2-9.4 15.5-24 20.6-32.5 5.1-8.5 13.4-23.7 18.6-33.8l9.3-18.2c-3.5-4.3-11.3-12.5-19.5-21-8.3-8.5-21.1-21.8-28.5-29.5-7.4-7.7-20.7-21.4-29.6-30.5-8.8-9.1-22.5-23.3-30.5-31.5-7.9-8.3-20.9-21.8-28.9-30-8-8.3-21.5-22.2-30-31-8.5-8.8-22.5-23.2-31-32-8.5-8.8-22.3-23-30.5-31.5-8.3-8.5-21.6-22.3-29.6-30.5-7.9-8.3-27.7-28.7-43.9-45.5-16.2-16.8-36.7-37.9-45.5-47-8.8-9.1-23.1-23.8-31.8-32.8l-15.7-16.2c-306.9 0-396 0.3-396 0.7 0 0.5 96.8 97.5 215.1 215.8l215.1 215c-17.6 13.3-26.1 19.4-30.2 22.2-4.1 2.7-12 7.7-17.5 11-5.5 3.3-15.2 8.7-21.5 12-6.3 3.3-17.1 8.5-24 11.6-6.9 3-18.6 7.7-26 10.5-7.4 2.8-19.8 6.9-27.5 9-7.7 2.2-19.6 5.1-26.5 6.6-6.9 1.4-17.2 3.2-23 4-5.8 0.9-15.7 2-22 2.6-6.3 0.5-19.6 1-29.5 1-9.9 0-23.2-0.5-29.5-1-6.3-0.6-16.2-1.7-22-2.6-5.8-0.8-16.8-2.9-24.5-4.5-7.7-1.7-19.2-4.7-25.5-6.6-6.3-1.9-17.6-5.7-25-8.5-7.4-2.7-20.3-8.3-28.5-12.3-8.3-4-19.1-9.7-24-12.5-5-2.9-13.3-8-18.5-11.4-5.2-3.4-15.4-10.7-22.5-16.1-7.2-5.4-17.7-14-23.5-19-5.8-5.1-17.5-16.4-26-25.1-8.6-8.8-20.1-21.3-25.6-27.9-5.5-6.6-14.3-18.1-19.6-25.5-5.3-7.4-13.1-19.1-17.4-26-4.3-6.9-11.9-20.6-16.9-30.5-5.1-9.9-11.7-24.1-14.8-31.5-3.1-7.4-7.6-19.6-10.1-27-2.4-7.4-6.2-20.9-8.4-30-2.3-9.1-5-22.1-6.1-29-1.1-6.9-2.7-20.2-3.7-29.5-1.2-12.6-1.5-22.8-1.1-39.5 0.3-15.7 1.1-26.9 2.6-37 1.2-8 3.3-19.9 4.7-26.5 1.4-6.6 4.5-19 6.9-27.5 2.4-8.5 5.5-19.1 7-23.5 1.5-4.4 5.6-15.4 9.2-24.5 3.6-9.1 10.3-24.2 14.9-33.5 4.7-9.4 12-22.8 16.2-29.8 4.2-7 11.6-18.3 16.4-25 4.8-6.7 13.1-17.5 18.5-24 5.4-6.6 17.2-19.2 26.3-28.1 9.1-8.9 21.4-20.1 27.5-24.9 6-4.9 18-13.5 26.5-19.1 8.5-5.7 21.8-13.7 29.5-17.9 7.7-4.2 20.1-10.3 27.5-13.5 7.4-3.3 20.9-8.5 30-11.7 9.1-3.1 23.2-7.4 31.5-9.5 8.2-2.1 17.1-4.1 19.7-4.4 2.7-0.3 4.8-0.9 4.8-1.4 0-0.4-48-48.7-106.7-107.4-58.8-58.8-107.5-106.8-108.3-106.8-0.8 0-2.6 0.7-4 1.5z"/></svg>