<svg xmlns="http://www.w3.org/2000/svg" viewBox="0 0 1034 319" role="img" aria-label="GSEG"><title>GSEG</title><g fill="#49693F" transform="translate(20,294.36)"><path transform="translate(0.00,0) scale(0.38000,-0.38000)" d="M376 722Q441 722 481.0 702.5Q521 683 556 657Q569 647 576 647Q595 647 601 708H624Q622 671 621.0 618.0Q620 565 620 478H597Q590 520 580.0 559.0Q570 598 547 626Q518 663 471.0 683.5Q424 704 374 704Q324 704 283.5 679.5Q243 655 214.0 609.0Q185 563 169.5 498.5Q154 434 154 353Q154 173 212.0 89.5Q270 6 392 6Q428 6 454.5 16.5Q481 27 496 37Q515 50 520.0 61.5Q525 73 525 92V188Q525 229 517.0 249.0Q509 269 487.5 276.0Q466 283 424 284V304Q442 303 466.0 302.5Q490 302 516.5 301.5Q543 301 565 301Q598 301 624.5 302.0Q651 303 669 304V284Q647 283 636.0 277.0Q625 271 621.5 253.0Q618 235 618 198V0H598Q597 17 590.5 37.0Q584 57 571 57Q565 57 559.0 54.0Q553 51 538 40Q505 15 468.0 0.5Q431 -14 382 -14Q279 -14 205.5 28.5Q132 71 93.0 151.0Q54 231 54 342Q54 459 96.0 544.0Q138 629 210.5 675.5Q283 722 376 722Z"/><path transform="translate(275.14,0) scale(0.38000,-0.38000)" d="M256 719Q306 719 332.0 707.5Q358 696 378 682Q390 675 397.5 671.5Q405 668 412 668Q422 668 426.5 679.0Q431 690 434 712H457Q456 695 454.5 671.5Q453 648 452.5 609.5Q452 571 452 508H429Q426 556 408.0 600.0Q390 644 355.5 672.0Q321 700 265 700Q212 700 177.5 668.0Q143 636 143 584Q143 539 166.0 508.5Q189 478 227.5 453.5Q266 429 311 401Q363 369 403.5 337.5Q444 306 467.5 268.0Q491 230 491 176Q491 112 462.0 70.0Q433 28 385.0 7.0Q337 -14 279 -14Q226 -14 195.0 -2.0Q164 10 142 23Q120 37 108 37Q98 37 93.5 26.0Q89 15 86 -7H63Q65 14 65.5 42.5Q66 71 66.5 117.0Q67 163 67 233H90Q94 173 112.5 121.0Q131 69 169.5 37.5Q208 6 272 6Q305 6 334.5 19.5Q364 33 383.0 62.5Q402 92 402 139Q402 180 382.5 210.5Q363 241 328.0 267.5Q293 294 246 322Q199 351 158.0 381.0Q117 411 92.5 450.5Q68 490 68 546Q68 605 94.5 643.5Q121 682 164.0 700.5Q207 719 256 719Z"/><path transform="translate(488.34,0) scale(0.38000,-0.38000)" d="M541 708Q537 673 535.5 640.0Q534 607 534 590Q534 572 535.0 555.5Q536 539 537 528H514Q508 587 497.0 621.5Q486 656 459.5 670.5Q433 685 380 685H297Q263 685 245.5 679.5Q228 674 222.0 656.5Q216 639 216 602V106Q216 70 222.0 52.0Q228 34 245.5 28.5Q263 23 297 23H370Q433 23 465.5 40.0Q498 57 512.5 95.5Q527 134 534 200H557Q554 173 554 128Q554 109 555.5 73.5Q557 38 561 0Q510 2 446.0 2.5Q382 3 332 3Q310 3 275.5 3.0Q241 3 201.0 2.5Q161 2 120.0 1.5Q79 1 42 0V20Q76 22 93.5 28.0Q111 34 117.0 52.0Q123 70 123 106V602Q123 639 117.0 656.5Q111 674 93.5 680.5Q76 687 42 688V708Q79 707 120.0 706.5Q161 706 201.0 705.5Q241 705 275.5 705.0Q310 705 332 705Q378 705 436.5 705.5Q495 706 541 708ZM369 366Q369 366 369.0 356.0Q369 346 369 346H186Q186 346 186.0 356.0Q186 366 186 366ZM398 498Q394 441 394.5 411.0Q395 381 395 356Q395 331 396.0 301.0Q397 271 401 214H378Q374 246 368.5 276.5Q363 307 344.5 326.5Q326 346 282 346V366Q315 366 332.5 379.5Q350 393 358.0 414.0Q366 435 369.0 457.5Q372 480 375 498Z"/><path transform="translate(727.76,0) scale(0.38000,-0.38000)" d="M376 722Q441 722 481.0 702.5Q521 683 556 657Q569 647 576 647Q595 647 601 708H624Q622 671 621.0 618.0Q620 565 620 478H597Q590 520 580.0 559.0Q570 598 547 626Q518 663 471.0 683.5Q424 704 374 704Q324 704 283.5 679.5Q243 655 214.0 609.0Q185 563 169.5 498.5Q154 434 154 353Q154 173 212.0 89.5Q270 6 392 6Q428 6 454.5 16.5Q481 27 496 37Q515 50 520.0 61.5Q525 73 525 92V188Q525 229 517.0 249.0Q509 269 487.5 276.0Q466 283 424 284V304Q442 303 466.0 302.5Q490 302 516.5 301.5Q543 301 565 301Q598 301 624.5 302.0Q651 303 669 304V284Q647 283 636.0 277.0Q625 271 621.5 253.0Q618 235 618 198V0H598Q597 17 590.5 37.0Q584 57 571 57Q565 57 559.0 54.0Q553 51 538 40Q505 15 468.0 0.5Q431 -14 382 -14Q279 -14 205.5 28.5Q132 71 93.0 151.0Q54 231 54 342Q54 459 96.0 544.0Q138 629 210.5 675.5Q283 722 376 722Z"/></g></svg>